<?xml version="1.0" encoding="utf-8"?>
<!-- Generator: Adobe Illustrator 19.2.0, SVG Export Plug-In . SVG Version: 6.00 Build 0)  -->
<svg version="1.1" id="Layer_1" xmlns="http://www.w3.org/2000/svg" xmlns:xlink="http://www.w3.org/1999/xlink" x="0px" y="0px"
	 viewBox="0 0 2732 2048" style="enable-background:new 0 0 2732 2048;" xml:space="preserve">
<style type="text/css">
	.st0{fill:#332E5A;}
	.st1{fill:url(#SVGID_1_);}
	.st2{fill:url(#SVGID_2_);}
	.st3{filter:url(#Adobe_OpacityMaskFilter);}
	.st4{fill:#FFFFFF;}
	.st5{mask:url(#SVGID_3_);fill:#5A5888;}
	.st6{fill:#6CC3B9;}
	.st7{fill:url(#SVGID_4_);}
	.st8{fill:#D94065;}
	.st9{filter:url(#Adobe_OpacityMaskFilter_1_);}
	.st10{mask:url(#SVGID_5_);fill:#ED6969;}
	.st11{filter:url(#Adobe_OpacityMaskFilter_2_);}
	.st12{mask:url(#SVGID_6_);fill:#F48E6F;}
	.st13{fill:url(#SVGID_7_);}
	.st14{filter:url(#Adobe_OpacityMaskFilter_3_);}
	.st15{mask:url(#SVGID_8_);fill:#ED6969;}
	.st16{filter:url(#Adobe_OpacityMaskFilter_4_);}
	.st17{mask:url(#SVGID_9_);fill:#F48E6F;}
	.st18{fill:#5DBFBA;}
	.st19{fill:#342F5A;}
	.st20{fill:#D0006A;}
	.st21{fill:#A90660;}
	.st22{fill:#FFFFFF;fill-opacity:0.23;}
	.st23{fill:#F16F43;}
	.st24{filter:url(#Adobe_OpacityMaskFilter_5_);}
	.st25{mask:url(#SVGID_10_);fill:#F68948;}
	.st26{filter:url(#Adobe_OpacityMaskFilter_6_);}
	.st27{mask:url(#SVGID_11_);fill:#FBB543;}
	.st28{fill:#FF9F23;}
	.st29{filter:url(#Adobe_OpacityMaskFilter_7_);}
	.st30{mask:url(#SVGID_12_);fill:#FCC674;}
	.st31{fill:url(#SVGID_13_);}
	.st32{fill:#BE006A;}
	.st33{filter:url(#Adobe_OpacityMaskFilter_8_);}
	.st34{mask:url(#SVGID_14_);fill:#E1166D;}
	.st35{filter:url(#Adobe_OpacityMaskFilter_9_);}
	.st36{mask:url(#SVGID_15_);fill:#E94868;}
	.st37{fill:url(#SVGID_16_);}
	.st38{fill:#4E4D7A;}
	.st39{filter:url(#Adobe_OpacityMaskFilter_10_);}
	.st40{mask:url(#SVGID_17_);fill:#5A5888;}
	.st41{fill:url(#SVGID_18_);}
	.st42{fill:#39AEB9;}
	.st43{filter:url(#Adobe_OpacityMaskFilter_11_);}
	.st44{mask:url(#SVGID_19_);fill:#6CC3B9;}
	.st45{fill:#5C5A8B;}
	.st46{fill:#F9F4F9;}
	.st47{fill:#5A5888;}
	.st48{fill:url(#SVGID_20_);}
	.st49{fill:#00496E;}
	.st50{filter:url(#Adobe_OpacityMaskFilter_12_);}
	.st51{mask:url(#SVGID_21_);fill:#118CCF;}
	.st52{fill:url(#SVGID_22_);}
	.st53{filter:url(#Adobe_OpacityMaskFilter_13_);}
	.st54{mask:url(#SVGID_23_);fill:#118CCF;}
</style>
<rect x="-31.9" y="-2.9" class="st0" width="2814.1" height="2085.8"/>
<radialGradient id="SVGID_1_" cx="917.6627" cy="922.3813" r="417.8022" gradientTransform="matrix(0.9998 -1.913731e-002 1.913731e-002 0.9998 -19.8661 25.2342)" gradientUnits="userSpaceOnUse">
	<stop  offset="0" style="stop-color:#FCC674;stop-opacity:0.5"/>
	<stop  offset="4.295444e-002" style="stop-color:#E5B472;stop-opacity:0.5215"/>
	<stop  offset="0.2308" style="stop-color:#9E7B6D;stop-opacity:0.6154"/>
	<stop  offset="0.4131" style="stop-color:#715A67;stop-opacity:0.7065"/>
	<stop  offset="0.5854" style="stop-color:#544561;stop-opacity:0.7927"/>
	<stop  offset="0.7453" style="stop-color:#42385D;stop-opacity:0.8727"/>
	<stop  offset="0.8883" style="stop-color:#37305B;stop-opacity:0.9441"/>
	<stop  offset="1" style="stop-color:#332E5A"/>
</radialGradient>
<circle class="st1" cx="915.3" cy="929.9" r="417.8"/>
<g>
	<radialGradient id="SVGID_2_" cx="2488.8093" cy="1747.8236" r="541.4186" gradientUnits="userSpaceOnUse">
		<stop  offset="0" style="stop-color:#5A5888;stop-opacity:0.5"/>
		<stop  offset="0.3336" style="stop-color:#494573;stop-opacity:0.6668"/>
		<stop  offset="0.7492" style="stop-color:#383460;stop-opacity:0.8746"/>
		<stop  offset="1" style="stop-color:#332E5A"/>
	</radialGradient>
	<circle class="st2" cx="2488.8" cy="1747.8" r="541.4"/>
	
		<ellipse transform="matrix(0.9202 -0.3915 0.3915 0.9202 -485.5786 1113.7289)" class="st0" cx="2488.8" cy="1747.8" rx="317.8" ry="317.8"/>
	<defs>
		<filter id="Adobe_OpacityMaskFilter" filterUnits="userSpaceOnUse" x="2146" y="1290.5" width="864.9" height="788.6">
			<feColorMatrix  type="matrix" values="1 0 0 0 0  0 1 0 0 0  0 0 1 0 0  0 0 0 1 0"/>
		</filter>
	</defs>
	<mask maskUnits="userSpaceOnUse" x="2146" y="1290.5" width="864.9" height="788.6" id="SVGID_3_">
		<g class="st3">
			
				<ellipse transform="matrix(0.9202 -0.3915 0.3915 0.9202 -485.5786 1113.7289)" class="st4" cx="2488.8" cy="1747.8" rx="317.8" ry="317.8"/>
		</g>
	</mask>
	<path class="st5" d="M2467.8,1406.1L2217,1512.8c-19.9,8.5-30.9,27.5-24.5,42.5v0c6.4,15,27.7,20.3,47.6,11.8l140.8-59.9
		c19.9-8.5,41.3-3.2,47.6,11.8v0c6.4,15-4.6,34.1-24.5,42.5l-231.7,98.6c-19.9,8.5-30.9,27.5-24.5,42.5v0
		c6.4,15,27.7,20.3,47.6,11.8l345.7-147.1c19.9-8.5,41.3-3.2,47.6,11.8l0,0c6.4,15-4.6,34.1-24.5,42.5l-202.7,86.2
		c-19.9,8.5-30.9,27.5-24.5,42.5v0c6.4,15,27.7,20.3,47.6,11.8l125.8-53.5c19.9-8.5,41.3-3.2,47.6,11.8l0,0
		c6.4,15-4.6,34.1-24.5,42.5l-189.7,80.7c-19.9,8.5-30.9,27.5-24.5,42.5v0c6.4,15,27.7,20.3,47.6,11.8l330.7-140.7
		c19.9-8.5,41.3-3.2,47.6,11.8l0,0c6.4,15-4.6,34.1-24.5,42.5l-453.7,193c-19.9,8.5-30.9,27.5-24.5,42.5l0,0
		c6.4,15,27.7,20.3,47.6,11.8l296.7-126.2c19.9-8.5,41.3-3.2,47.6,11.8v0c6.4,15-4.6,34.1-24.5,42.5l-77,32.8
		c-19.9,8.5-30.9,27.5-24.5,42.5v0c6.4,15,27.7,20.3,47.6,11.8l166-70.6l262.3-111.6c19.9-8.5,30.9-27.5,24.5-42.5l-231.4-543.9
		c-6.4-15-27.7-20.3-47.6-11.8L2467.8,1406.1z"/>
</g>
<path class="st6" d="M1728.9,719.1c0-1,0-1.9,0-2.8h0V719.1z"/>
<path class="st6" d="M1728.5,718.1c0-1,0-1.9,0-2.8h0V718.1z"/>
<g>
	<path class="st6" d="M2631.2,596.2v3.5h-0.1C2631.1,598.6,2631.2,597.4,2631.2,596.2z"/>
	<path class="st6" d="M2631.2,596.2v3.5h-0.1C2631.1,598.6,2631.2,597.4,2631.2,596.2z"/>
	<radialGradient id="SVGID_4_" cx="2401.2935" cy="487.7911" r="144.9019" gradientUnits="userSpaceOnUse">
		<stop  offset="0" style="stop-color:#F48E6F;stop-opacity:0.5"/>
		<stop  offset="2.408093e-002" style="stop-color:#E4856E;stop-opacity:0.512"/>
		<stop  offset="0.1617" style="stop-color:#A86669;stop-opacity:0.5808"/>
		<stop  offset="0.3016" style="stop-color:#7E5165;stop-opacity:0.6508"/>
		<stop  offset="0.4414" style="stop-color:#614361;stop-opacity:0.7207"/>
		<stop  offset="0.5811" style="stop-color:#4D395E;stop-opacity:0.7905"/>
		<stop  offset="0.7207" style="stop-color:#3E325C;stop-opacity:0.8603"/>
		<stop  offset="0.8602" style="stop-color:#362F5A;stop-opacity:0.9301"/>
		<stop  offset="1" style="stop-color:#332E5A"/>
	</radialGradient>
	<circle class="st7" cx="2401.3" cy="487.8" r="144.9"/>
	<g>
		
			<ellipse transform="matrix(0.9717 -0.2361 0.2361 0.9717 -47.3417 580.1479)" class="st8" cx="2399.2" cy="487.8" rx="65.7" ry="65.7"/>
		<defs>
			<filter id="Adobe_OpacityMaskFilter_1_" filterUnits="userSpaceOnUse" x="2343.2" y="407.5" width="139.7" height="154.8">
				<feColorMatrix  type="matrix" values="1 0 0 0 0  0 1 0 0 0  0 0 1 0 0  0 0 0 1 0"/>
			</filter>
		</defs>
		<mask maskUnits="userSpaceOnUse" x="2343.2" y="407.5" width="139.7" height="154.8" id="SVGID_5_">
			<g class="st9">
				
					<ellipse transform="matrix(0.9717 -0.2361 0.2361 0.9717 -47.3417 580.1479)" class="st4" cx="2399.2" cy="487.8" rx="65.7" ry="65.7"/>
			</g>
		</mask>
		<path class="st10" d="M2403.3,418.1l-52.3,12.7c-3.3,0.8-5.3,4.1-4.5,7.4v0c0.8,3.3,4.1,5.3,7.4,4.5l23-5.6
			c3.3-0.8,6.6,1.2,7.4,4.5v0c0.8,3.3-1.2,6.6-4.5,7.4l-31.9,7.7c-3.3,0.8-5.3,4.1-4.5,7.4v0c0.8,3.3,4.1,5.3,7.4,4.5l29.3-7.1
			c3.3-0.8,6.6,1.2,7.4,4.5l0,0c0.8,3.3-1.2,6.6-4.5,7.4l-14.9,3.6c-3.3,0.8-5.3,4.1-4.5,7.4v0c0.8,3.3,4.1,5.3,7.4,4.5l7.9-1.9
			c3.3-0.8,6.6,1.2,7.4,4.5v0c0.8,3.3-1.2,6.6-4.5,7.4l-17.9,4.4c-3.3,0.8-5.3,4.1-4.5,7.4v0c0.8,3.3,4.1,5.3,7.4,4.5l37.2-9
			c3.3-0.8,6.6,1.2,7.4,4.5v0c0.8,3.3-1.2,6.6-4.5,7.4l-37,9c-3.3,0.8-5.3,4.1-4.5,7.4v0c0.8,3.3,4.1,5.3,7.4,4.5l29.4-7.1
			c3.3-0.8,6.6,1.2,7.4,4.5v0c0.8,3.3-1.2,6.6-4.5,7.4l-27.3,6.6c-3.3,0.8-5.3,4.1-4.5,7.4v0c0.8,3.3,4.1,5.3,7.4,4.5l54.6-13.3
			l43.2-10.5c3.3-0.8,5.3-4.1,4.5-7.4l-28.9-118.8c-0.8-3.3-4.1-5.3-7.4-4.5L2403.3,418.1z"/>
		<defs>
			<filter id="Adobe_OpacityMaskFilter_2_" filterUnits="userSpaceOnUse" x="2367.4" y="402.8" width="134.8" height="148.2">
				<feColorMatrix  type="matrix" values="1 0 0 0 0  0 1 0 0 0  0 0 1 0 0  0 0 0 1 0"/>
			</filter>
		</defs>
		<mask maskUnits="userSpaceOnUse" x="2367.4" y="402.8" width="134.8" height="148.2" id="SVGID_6_">
			<g class="st11">
				
					<ellipse transform="matrix(0.9717 -0.2361 0.2361 0.9717 -47.3417 580.1479)" class="st4" cx="2399.2" cy="487.8" rx="65.7" ry="65.7"/>
			</g>
		</mask>
		<path class="st12" d="M2422.5,413.5l-41.3,10c-3.3,0.8-5.3,4.1-4.5,7.4v0c0.8,3.3,4.1,5.3,7.4,4.5l23.2-5.6
			c3.3-0.8,6.6,1.2,7.4,4.5v0c0.8,3.3-1.2,6.6-4.5,7.4l-38.2,9.3c-3.3,0.8-5.3,4.1-4.5,7.4v0c0.8,3.3,4.1,5.3,7.4,4.5l56.9-13.8
			c3.3-0.8,6.6,1.2,7.4,4.5l0,0c0.8,3.3-1.2,6.6-4.5,7.4l-33.4,8.1c-3.3,0.8-5.3,4.1-4.5,7.4v0c0.8,3.3,4.1,5.3,7.4,4.5l20.7-5
			c3.3-0.8,6.6,1.2,7.4,4.5v0c0.8,3.3-1.2,6.6-4.5,7.4l-31.2,7.6c-3.3,0.8-5.3,4.1-4.5,7.4l0,0c0.8,3.3,4.1,5.3,7.4,4.5l54.4-13.2
			c3.3-0.8,6.6,1.2,7.4,4.5l0,0c0.8,3.3-1.2,6.6-4.5,7.4l-74.7,18.1c-3.3,0.8-5.3,4.1-4.5,7.4l0,0c0.8,3.3,4.1,5.3,7.4,4.5
			l48.9-11.9c3.3-0.8,6.6,1.2,7.4,4.5v0c0.8,3.3-1.2,6.6-4.5,7.4l-12.7,3.1c-3.3,0.8-5.3,4.1-4.5,7.4v0c0.8,3.3,4.1,5.3,7.4,4.5
			l27.3-6.6l43.2-10.5c3.3-0.8,5.3-4.1,4.5-7.4l-28.9-118.8c-0.8-3.3-4.1-5.3-7.4-4.5L2422.5,413.5z"/>
	</g>
</g>
<g>
	<path class="st6" d="M1847.8,1453v3.9h-0.1C1847.7,1455.7,1847.8,1454.4,1847.8,1453z"/>
	<path class="st6" d="M1847.8,1453v3.9h-0.1C1847.7,1455.7,1847.8,1454.4,1847.8,1453z"/>
	<radialGradient id="SVGID_7_" cx="1593.1915" cy="1333.0018" r="160.4676" gradientUnits="userSpaceOnUse">
		<stop  offset="0" style="stop-color:#F48E6F;stop-opacity:0.5"/>
		<stop  offset="2.408093e-002" style="stop-color:#E4856E;stop-opacity:0.512"/>
		<stop  offset="0.1617" style="stop-color:#A86669;stop-opacity:0.5808"/>
		<stop  offset="0.3016" style="stop-color:#7E5165;stop-opacity:0.6508"/>
		<stop  offset="0.4414" style="stop-color:#614361;stop-opacity:0.7207"/>
		<stop  offset="0.5811" style="stop-color:#4D395E;stop-opacity:0.7905"/>
		<stop  offset="0.7207" style="stop-color:#3E325C;stop-opacity:0.8603"/>
		<stop  offset="0.8602" style="stop-color:#362F5A;stop-opacity:0.9301"/>
		<stop  offset="1" style="stop-color:#332E5A"/>
	</radialGradient>
	<circle class="st13" cx="1593.2" cy="1333" r="160.5"/>
	<g>
		
			<ellipse transform="matrix(0.9717 -0.2361 0.2361 0.9717 -269.7046 413.2236)" class="st8" cx="1590.9" cy="1333" rx="72.8" ry="72.8"/>
		<defs>
			<filter id="Adobe_OpacityMaskFilter_3_" filterUnits="userSpaceOnUse" x="1528.8" y="1244.1" width="154.7" height="171.4">
				<feColorMatrix  type="matrix" values="1 0 0 0 0  0 1 0 0 0  0 0 1 0 0  0 0 0 1 0"/>
			</filter>
		</defs>
		<mask maskUnits="userSpaceOnUse" x="1528.8" y="1244.1" width="154.7" height="171.4" id="SVGID_8_">
			<g class="st14">
				
					<ellipse transform="matrix(0.9717 -0.2361 0.2361 0.9717 -269.7046 413.2236)" class="st4" cx="1590.9" cy="1333" rx="72.8" ry="72.8"/>
			</g>
		</mask>
		<path class="st15" d="M1595.4,1255.9l-57.9,14.1c-3.6,0.9-5.9,4.5-5,8.2l0,0c0.9,3.6,4.5,5.9,8.2,5l25.5-6.2
			c3.6-0.9,7.3,1.3,8.2,5v0c0.9,3.6-1.3,7.3-5,8.2l-35.3,8.6c-3.6,0.9-5.9,4.5-5,8.2v0c0.9,3.6,4.5,5.9,8.2,5l32.4-7.9
			c3.6-0.9,7.3,1.3,8.2,5l0,0c0.9,3.6-1.3,7.3-5,8.2l-16.6,4c-3.6,0.9-5.9,4.5-5,8.2v0c0.9,3.6,4.5,5.9,8.2,5l8.7-2.1
			c3.6-0.9,7.3,1.3,8.2,5l0,0c0.9,3.6-1.3,7.3-5,8.2l-19.8,4.8c-3.6,0.9-5.9,4.5-5,8.2l0,0c0.9,3.6,4.5,5.9,8.2,5l41.2-10
			c3.6-0.9,7.3,1.3,8.2,5v0c0.9,3.6-1.3,7.3-5,8.2l-41,10c-3.6,0.9-5.9,4.5-5,8.2v0c0.9,3.6,4.5,5.9,8.2,5l32.6-7.9
			c3.6-0.9,7.3,1.3,8.2,5v0c0.9,3.6-1.3,7.3-5,8.2l-30.2,7.3c-3.6,0.9-5.9,4.5-5,8.2v0c0.9,3.6,4.5,5.9,8.2,5l60.5-14.7l47.8-11.6
			c3.6-0.9,5.9-4.5,5-8.2l-32-131.6c-0.9-3.6-4.5-5.9-8.2-5L1595.4,1255.9z"/>
		<defs>
			<filter id="Adobe_OpacityMaskFilter_4_" filterUnits="userSpaceOnUse" x="1555.6" y="1238.9" width="149.2" height="164.1">
				<feColorMatrix  type="matrix" values="1 0 0 0 0  0 1 0 0 0  0 0 1 0 0  0 0 0 1 0"/>
			</filter>
		</defs>
		<mask maskUnits="userSpaceOnUse" x="1555.6" y="1238.9" width="149.2" height="164.1" id="SVGID_9_">
			<g class="st16">
				
					<ellipse transform="matrix(0.9717 -0.2361 0.2361 0.9717 -269.7046 413.2236)" class="st4" cx="1590.9" cy="1333" rx="72.8" ry="72.8"/>
			</g>
		</mask>
		<path class="st17" d="M1616.7,1250.7l-45.7,11.1c-3.6,0.9-5.9,4.5-5,8.2l0,0c0.9,3.6,4.5,5.9,8.2,5l25.7-6.2
			c3.6-0.9,7.3,1.3,8.2,5v0c0.9,3.6-1.3,7.3-5,8.2l-42.3,10.3c-3.6,0.9-5.9,4.5-5,8.2v0c0.9,3.6,4.5,5.9,8.2,5l63-15.3
			c3.6-0.9,7.3,1.3,8.2,5l0,0c0.9,3.6-1.3,7.3-5,8.2l-37,9c-3.6,0.9-5.9,4.5-5,8.2l0,0c0.9,3.6,4.5,5.9,8.2,5l22.9-5.6
			c3.6-0.9,7.3,1.3,8.2,5v0c0.9,3.6-1.3,7.3-5,8.2l-34.6,8.4c-3.6,0.9-5.9,4.5-5,8.2l0,0c0.9,3.6,4.5,5.9,8.2,5l60.3-14.6
			c3.6-0.9,7.3,1.3,8.2,5v0c0.9,3.6-1.3,7.3-5,8.2L1572,1373c-3.6,0.9-5.9,4.5-5,8.2l0,0c0.9,3.6,4.5,5.9,8.2,5l54.1-13.1
			c3.6-0.9,7.3,1.3,8.2,5l0,0c0.9,3.6-1.3,7.3-5,8.2l-14,3.4c-3.6,0.9-5.9,4.5-5,8.2l0,0c0.9,3.6,4.5,5.9,8.2,5l30.3-7.4l47.8-11.6
			c3.6-0.9,5.9-4.5,5-8.2l-32-131.6c-0.9-3.6-4.5-5.9-8.2-5L1616.7,1250.7z"/>
	</g>
</g>
<g>
	<path class="st18" d="M2804.9-256.8L1854,250.4l0.1,0.1c-44.7,26.3-61,83.4-36.4,129.5s81.2,64.2,127.9,41.6l0,0.1l950.9-507.2
		L2804.9-256.8z"/>
	<path class="st6" d="M1857.3,248.1c-0.9,0.5-1.7,0.9-2.6,1.4l0,0L1857.3,248.1z"/>
	<path class="st19" d="M2138.2,299L1941,404.5c-38.4,20.5-85.9,6.5-107.1-31.3c-22-39.2-6.5-88.8,33.1-110l276.9-148.1
		c0,0,0.1,0,0.1,0l8.3,15.5c0,0,0,0.1,0,0.1l-95.7,51.2c0,0-0.1,0.1,0,0.1l8.3,15.5c0,0,0.1,0.1,0.1,0l179.1-95.8c0,0,0.1,0,0.1,0
		l8.7,16.3c0,0,0,0.1,0,0.1l-146.9,78.6c0,0-0.1,0.1,0,0.1l8.3,15.5c0,0,0.1,0.1,0.1,0l99.3-53.1c0,0,0.1,0,0.1,0l7.8,14.6
		c0,0,0,0.1,0,0.1l-81.6,43.6c0,0-0.1,0.1,0,0.1l8.3,15.5c0,0,0.1,0.1,0.1,0l118.9-63.6c0,0,0.1,0,0.1,0l8.3,15.5c0,0,0,0.1,0,0.1
		l-181.2,96.9c0,0-0.1,0.1,0,0.1l8.3,15.5c0,0,0.1,0.1,0.1,0l27.2-14.5c0,0,0.1,0,0.1,0l8.3,15.5C2138.2,299,2138.2,299,2138.2,299z
		"/>
	<path class="st19" d="M2110.4,293.8l-7.8,4.2c0,0-0.1,0-0.1,0l-8.3-15.5c0,0,0-0.1,0-0.1l7.8-4.2c-4.3,2.3-5.9,7.7-3.6,12
		C2100.8,294.4,2106.1,296.1,2110.4,293.8z"/>
	<path class="st19" d="M2072.6,193.4l-7.8,4.2c0,0-0.1,0-0.1,0l-8.3-15.5c0,0,0-0.1,0-0.1l7.8-4.2c-4.3,2.3-5.9,7.7-3.6,12
		C2062.9,194.1,2068.3,195.7,2072.6,193.4z"/>
	
		<ellipse transform="matrix(0.8818 -0.4716 0.4716 0.8818 67.3552 937.1401)" class="st20" cx="1903.4" cy="334.2" rx="62" ry="62"/>
	<g>
		<path class="st20" d="M2040.4,311.1l-49.7,26.6c-4.3,2.3-9.7,0.7-12-3.6v0c-2.3-4.3-0.7-9.7,3.7-12l85.4-45c4.3-2.3,6-7.7,3.7-12
			l0-0.1c-2.3-4.3-7.6-5.9-11.9-3.7l-45,23.4c-4.3,2.2-9.6,0.6-11.9-3.7l-0.1-0.1c-2.3-4.3-0.7-9.7,3.6-12l72-38.5
			c4.3-2.3,5.9-7.7,3.6-12l0-0.1c-2.3-4.3-7.7-5.9-12-3.6l-94.9,50.8c-4.3,2.3-9.7,0.7-12-3.6l0-0.1c-2.3-4.3-0.7-9.7,3.6-12
			l16.5-8.8c4.3-2.3,5.9-7.7,3.6-12l0-0.1c-2.3-4.3-7.7-5.9-12-3.6l-92.9,49.7c-4.3,2.3-5.9,7.7-3.6,12l50.2,93.8
			c2.3,4.3,7.7,5.9,12,3.6l108.4-58c4.3-2.3,5.9-7.7,3.6-12l0-0.1C2050.1,310.4,2044.7,308.8,2040.4,311.1z"/>
		<path class="st20" d="M2003.4,227.6l-6-11.2c-0.7-1.2-0.2-2.8,1-3.4l30.6-16.3c1.2-0.7,2.8-0.2,3.4,1l6,11.2
			c0.7,1.2,0.2,2.8-1,3.4l-30.6,16.3C2005.6,229.3,2004.1,228.8,2003.4,227.6z"/>
		<path class="st20" d="M2094.1,259.3l-6-11.2c-0.7-1.2-0.2-2.8,1-3.4l24.8-13.3c1.2-0.7,2.8-0.2,3.4,1l6,11.2
			c0.7,1.2,0.2,2.8-1,3.4l-24.8,13.3C2096.3,261,2094.8,260.6,2094.1,259.3z"/>
	</g>
	<path class="st21" d="M1975.5,225.3c-0.3,0.1-0.7,0.3-1,0.5L1975.5,225.3L1975.5,225.3z"/>
	<path class="st21" d="M1983.9,240.9l-1,0.5C1983.2,241.3,1983.5,241.1,1983.9,240.9L1983.9,240.9z"/>
	
		<ellipse transform="matrix(0.8818 -0.4716 0.4716 0.8818 67.1877 937.2921)" class="st4" cx="1903.6" cy="334.6" rx="62.1" ry="62.1"/>
	<path class="st6" d="M1857.3,248.1c-0.9,0.5-1.7,0.9-2.6,1.4l0,0L1857.3,248.1z"/>
	<g>
		<path class="st19" d="M1854,250.4L1854,250.4c0.9-0.4,1.7-0.9,2.6-1.4L1854,250.4z"/>
		<path class="st19" d="M1946.1,422.5L1946.1,422.5l2.6-1.3C1947.8,421.7,1947,422.1,1946.1,422.5z"/>
		<path class="st19" d="M2141.1,288c-2.3-4.3-7.6-5.9-11.9-3.6c0,0-0.1-0.1-0.1,0l-19.3,10.3c-4.3,2.3-9.7,0.7-12-3.6
			c-2.3-4.3-0.7-9.7,3.6-12l173.4-92.7c0,0,0,0,0,0c0,0,0,0,0.1,0c4.3-2.3,5.9-7.7,3.6-12c-2.3-4.3-7.7-5.9-12-3.6
			c0,0-0.1-0.1-0.1,0l-111.1,59.4c-4.3,2.3-9.7,0.7-12-3.6c-2.3-4.3-0.7-9.7,3.6-12l73.8-39.5c0,0,0,0,0,0c0,0,0,0,0.1,0
			c4-2.2,5.6-7.2,3.4-11.2s-7.2-5.6-11.2-3.4c0,0-0.1-0.1-0.1,0l-91.5,48.9c-4.3,2.3-9.7,0.7-12-3.6c-2.3-4.3-0.7-9.7,3.6-12
			l139.1-74.4c0,0,0,0,0,0c0,0,0,0,0.1,0c4.5-2.4,6.2-8,3.8-12.6s-8-6.2-12.6-3.8c0,0-0.1-0.1-0.1,0l-171.3,91.6
			c-4.3,2.3-9.7,0.7-12-3.6c-2.3-4.3-0.7-9.7,3.6-12l87.2-46.7c0.3-0.1,0.6-0.2,0.8-0.3c4.3-2.3,5.9-7.7,3.6-12s-7.7-5.9-12-3.6
			c0,0-0.1-0.1-0.1,0l-276.9,148.1c-39.6,21.2-55,70.8-33.1,110c21.2,37.8,68.8,51.8,107.1,31.3l197.2-105.5c0,0,0,0,0,0
			c0,0,0,0,0.1,0C2141.8,297.6,2143.4,292.3,2141.1,288z"/>
	</g>
	<g>
		<path class="st20" d="M2048.8,326.7c4.3-2.3,5.9-7.7,3.6-12l0-0.1c-2.3-4.3-7.7-5.9-12-3.6l-49.7,26.6c-4.3,2.3-9.7,0.7-12-3.6v0
			c-2.3-4.3-0.7-9.7,3.7-12l85.4-45c4.3-2.3,6-7.7,3.7-12l0-0.1c-2.3-4.3-7.6-5.9-11.9-3.7l-45,23.4c-4.3,2.2-9.6,0.6-11.9-3.7
			l-0.1-0.1c-2.3-4.3-0.7-9.7,3.6-12l72-38.5c4.3-2.3,5.9-7.7,3.6-12l0-0.1c-2.3-4.3-7.7-5.9-12-3.6l-94.9,50.8
			c-4.3,2.3-9.7,0.7-12-3.6l0-0.1c-2.3-4.3-0.7-9.7,3.6-12l16.5-8.8c4.3-2.3,5.9-7.7,3.6-12l0-0.1c-2.3-4.3-7.7-5.9-12-3.6
			l-92.9,49.7c-0.7,0.4-1.3,0.9-1.9,1.4c-2,0.8-4,1.7-5.9,2.8c-30.2,16.2-41.6,53.7-25.4,83.9c16.2,30.2,53.7,41.6,83.9,25.4
			c1.9-1,3.8-2.2,5.6-3.4c0.7-0.2,1.5-0.4,2.2-0.8L2048.8,326.7z"/>
		<path class="st20" d="M2000.4,222L2000.4,222c2.3,4.3,7.7,5.9,12,3.6l19.4-10.4c4.3-2.3,5.9-7.7,3.6-12l0,0
			c-2.3-4.3-7.7-5.9-12-3.6l-19.4,10.4C1999.8,212.3,1998.1,217.7,2000.4,222z"/>
		<path class="st20" d="M2091.1,253.8L2091.1,253.8c2.3,4.3,7.7,5.9,12,3.6l13.6-7.3c4.3-2.3,5.9-7.7,3.6-12v0
			c-2.3-4.3-7.7-5.9-12-3.6l-13.6,7.3C2090.4,244.1,2088.8,249.4,2091.1,253.8z"/>
	</g>
	<path class="st21" d="M1975.5,225.3c-0.3,0.1-0.7,0.3-1,0.5L1975.5,225.3L1975.5,225.3z"/>
	<path class="st21" d="M1983.9,240.9l-1,0.5C1983.2,241.3,1983.5,241.1,1983.9,240.9L1983.9,240.9z"/>
</g>
<g>
	
		<ellipse transform="matrix(0.9139 -0.4059 0.4059 0.9139 -594.3115 234.4139)" class="st22" cx="255.6" cy="1518.5" rx="854.2" ry="854.2"/>
	
		<ellipse transform="matrix(0.9139 -0.4059 0.4059 0.9139 -594.3115 234.4139)" class="st23" cx="255.6" cy="1518.5" rx="694" ry="694"/>
	<defs>
		<filter id="Adobe_OpacityMaskFilter_5_" filterUnits="userSpaceOnUse" x="-391.9" y="591.2" width="1601.4" height="1740.2">
			<feColorMatrix  type="matrix" values="1 0 0 0 0  0 1 0 0 0  0 0 1 0 0  0 0 0 1 0"/>
		</filter>
	</defs>
	<mask maskUnits="userSpaceOnUse" x="-391.9" y="591.2" width="1601.4" height="1740.2" id="SVGID_10_">
		<g class="st24">
			
				<ellipse transform="matrix(0.9139 -0.4059 0.4059 0.9139 -594.3115 234.4139)" class="st4" cx="255.6" cy="1518.5" rx="694" ry="694"/>
		</g>
	</mask>
	<path class="st25" d="M166,787.2l-519.5,230.7c-32.6,14.5-47.3,52.6-32.8,85.2l0,0c14.5,32.6,52.6,47.3,85.2,32.8l228.5-101.5
		c32.6-14.5,70.7,0.2,85.2,32.8l0,0c14.5,32.6-0.2,70.7-32.8,85.2L-337,1293.1c-32.6,14.5-47.3,52.6-32.8,85.2l0,0
		c14.5,32.6,52.6,47.3,85.2,32.8L6,1282c32.6-14.5,70.7,0.2,85.2,32.8l0,0c14.5,32.6-0.2,70.7-32.8,85.2L-90,1465.9
		c-32.6,14.5-47.3,52.6-32.8,85.2l0,0c14.5,32.6,52.6,47.3,85.2,32.8l78.2-34.7c32.6-14.5,70.7,0.2,85.2,32.8l0,0
		c14.5,32.6-0.2,70.7-32.8,85.2l-177.9,79c-32.6,14.5-47.3,52.6-32.8,85.2l0,0c14.5,32.6,52.6,47.3,85.2,32.8l369.1-163.9
		c32.6-14.5,70.7,0.2,85.2,32.8l0,0c14.5,32.6-0.2,70.7-32.8,85.2L21.5,1981.4c-32.6,14.5-47.3,52.6-32.8,85.2h0
		c14.5,32.6,52.6,47.3,85.2,32.8l292.3-129.8c32.6-14.5,70.7,0.2,85.2,32.8l0,0c14.5,32.6-0.2,70.7-32.8,85.2l-271,120.4
		c-32.6,14.5-47.3,52.6-32.8,85.2l0,0c14.5,32.6,52.6,47.3,85.2,32.8l542.4-240.9l428.8-190.4c32.6-14.5,47.3-52.6,32.8-85.2
		L680,629.6c-14.5-32.6-52.6-47.3-85.2-32.8L166,787.2z"/>
	<defs>
		<filter id="Adobe_OpacityMaskFilter_6_" filterUnits="userSpaceOnUse" x="-135.1" y="506.3" width="1535.8" height="1619.9">
			<feColorMatrix  type="matrix" values="1 0 0 0 0  0 1 0 0 0  0 0 1 0 0  0 0 0 1 0"/>
		</filter>
	</defs>
	<mask maskUnits="userSpaceOnUse" x="-135.1" y="506.3" width="1535.8" height="1619.9" id="SVGID_11_">
		<g class="st26">
			
				<ellipse transform="matrix(0.9139 -0.4059 0.4059 0.9139 -594.3115 234.4139)" class="st4" cx="255.6" cy="1518.5" rx="694" ry="694"/>
		</g>
	</mask>
	<path class="st27" d="M357.2,702.3l-410,182.1c-32.6,14.5-47.3,52.6-32.8,85.2l0,0c14.5,32.6,52.6,47.3,85.2,32.8l230.2-102.2
		c32.6-14.5,70.7,0.2,85.2,32.8l0,0c14.5,32.6-0.2,70.7-32.8,85.2l-378.9,168.3c-32.6,14.5-47.3,52.6-32.8,85.2l0,0
		c14.5,32.6,52.6,47.3,85.2,32.8l565.2-251c32.6-14.5,70.7,0.2,85.2,32.8v0c14.5,32.6-0.2,70.7-32.8,85.2l-331.5,147.2
		c-32.6,14.5-47.3,52.6-32.8,85.2l0,0c14.5,32.6,52.6,47.3,85.2,32.8l205.7-91.3c32.6-14.5,70.7,0.2,85.2,32.8l0,0
		c14.5,32.6-0.2,70.7-32.8,85.2L241.9,1601c-32.6,14.5-47.3,52.6-32.8,85.2l0,0c14.5,32.6,52.6,47.3,85.2,32.8l540.7-240.1
		c32.6-14.5,70.7,0.2,85.2,32.8l0,0c14.5,32.6-0.2,70.7-32.8,85.2l-741.8,329.4c-32.6,14.5-47.3,52.6-32.8,85.2l0,0
		c14.5,32.6,52.6,47.3,85.2,32.8l485.2-215.4c32.6-14.5,70.7,0.2,85.2,32.8l0,0c14.5,32.6-0.2,70.7-32.8,85.2l-125.9,55.9
		c-32.6,14.5-47.3,52.6-32.8,85.2l0,0c14.5,32.6,52.6,47.3,85.2,32.8l271.5-120.5l428.8-190.4c32.6-14.5,47.3-52.6,32.8-85.2
		L871.2,544.7c-14.5-32.6-52.6-47.3-85.2-32.8L357.2,702.3z"/>
</g>
<g>
	
		<ellipse transform="matrix(0.8951 -0.4458 0.4458 0.8951 -281.9696 549.6505)" class="st28" cx="1027.3" cy="874.1" rx="231.7" ry="231.7"/>
	<defs>
		<filter id="Adobe_OpacityMaskFilter_7_" filterUnits="userSpaceOnUse" x="867.8" y="525.2" width="543.2" height="565.4">
			<feColorMatrix  type="matrix" values="1 0 0 0 0  0 1 0 0 0  0 0 1 0 0  0 0 0 1 0"/>
		</filter>
	</defs>
	<mask maskUnits="userSpaceOnUse" x="867.8" y="525.2" width="543.2" height="565.4" id="SVGID_12_">
		<g class="st29">
			
				<ellipse transform="matrix(0.8951 -0.4458 0.4458 0.8951 -281.9696 549.6505)" class="st4" cx="1027.3" cy="874.1" rx="231.7" ry="231.7"/>
		</g>
	</mask>
	<path class="st30" d="M1258.9,1021.6l-134.1,66.8c-10.7,5.3-23.6,1-28.9-9.7l0,0c-5.3-10.7-1-23.6,9.7-28.9l75.3-37.5
		c10.7-5.3,15-18.2,9.7-28.9v0c-5.3-10.7-18.2-15-28.9-9.7l-123.9,61.7c-10.7,5.3-23.6,1-28.9-9.7l0,0c-5.3-10.7-1-23.6,9.7-28.9
		l184.8-92c10.7-5.3,15-18.2,9.7-28.9v0c-5.3-10.7-18.2-15-28.9-9.7l-108.4,54c-10.7,5.3-23.6,1-28.9-9.7v0
		c-5.3-10.7-1-23.6,9.7-28.9l67.2-33.5c10.7-5.3,15-18.2,9.7-28.9l0,0c-5.3-10.7-18.2-15-28.9-9.7l-101.4,50.5
		c-10.7,5.3-23.6,1-28.9-9.7h0c-5.3-10.7-1-23.6,9.7-28.9l176.8-88.1c10.7-5.3,15-18.2,9.7-28.9v0c-5.3-10.7-18.2-15-28.9-9.7
		L899,815.7c-10.7,5.3-23.6,1-28.9-9.7l0,0c-5.3-10.7-1-23.6,9.7-28.9l158.6-79c10.7-5.3,15-18.2,9.7-28.9l0,0
		c-5.3-10.7-18.2-15-28.9-9.7L978,680.1c-10.7,5.3-23.6,1-28.9-9.7l0,0c-5.3-10.7-1-23.6,9.7-28.9l88.8-44.2l140.2-69.8
		c10.7-5.3,23.6-1,28.9,9.7l192.1,385.7c5.3,10.7,1,23.6-9.7,28.9L1258.9,1021.6z"/>
</g>
<g>
	<radialGradient id="SVGID_13_" cx="1454.025" cy="1751.4958" r="200.7846" gradientUnits="userSpaceOnUse">
		<stop  offset="0" style="stop-color:#D94065;stop-opacity:0.5"/>
		<stop  offset="6.703478e-002" style="stop-color:#BF3D63;stop-opacity:0.5335"/>
		<stop  offset="0.2408" style="stop-color:#8F3860;stop-opacity:0.6204"/>
		<stop  offset="0.4118" style="stop-color:#6C345E;stop-opacity:0.7059"/>
		<stop  offset="0.5763" style="stop-color:#53315D;stop-opacity:0.7882"/>
		<stop  offset="0.7328" style="stop-color:#412F5B;stop-opacity:0.8664"/>
		<stop  offset="0.8777" style="stop-color:#372E5A;stop-opacity:0.9389"/>
		<stop  offset="1" style="stop-color:#332E5A"/>
	</radialGradient>
	<circle class="st31" cx="1454" cy="1751.5" r="200.8"/>
	<g>
		
			<ellipse transform="matrix(0.9202 -0.3915 0.3915 0.9202 -569.5934 708.9534)" class="st32" cx="1454" cy="1751.5" rx="117.8" ry="117.8"/>
		<defs>
			<filter id="Adobe_OpacityMaskFilter_8_" filterUnits="userSpaceOnUse" x="1345.3" y="1595" width="269.9" height="294.3">
				<feColorMatrix  type="matrix" values="1 0 0 0 0  0 1 0 0 0  0 0 1 0 0  0 0 0 1 0"/>
			</filter>
		</defs>
		<mask maskUnits="userSpaceOnUse" x="1345.3" y="1595" width="269.9" height="294.3" id="SVGID_14_">
			<g class="st33">
				
					<ellipse transform="matrix(0.9202 -0.3915 0.3915 0.9202 -569.5934 708.9534)" class="st4" cx="1454" cy="1751.5" rx="117.8" ry="117.8"/>
			</g>
		</mask>
		<path class="st34" d="M1440.8,1627.1l-88.8,37.8c-5.6,2.4-8.2,8.8-5.8,14.4l0,0c2.4,5.6,8.8,8.2,14.4,5.8l39.1-16.6
			c5.6-2.4,12,0.2,14.4,5.8v0c2.4,5.6-0.2,12-5.8,14.4l-54.2,23c-5.6,2.4-8.2,8.8-5.8,14.4v0c2.4,5.6,8.8,8.2,14.4,5.8l49.7-21.1
			c5.6-2.4,12,0.2,14.4,5.8l0,0c2.4,5.6-0.2,12-5.8,14.4l-25.4,10.8c-5.6,2.4-8.2,8.8-5.8,14.4l0,0c2.4,5.6,8.8,8.2,14.4,5.8
			l13.4-5.7c5.6-2.4,12,0.2,14.4,5.8l0,0c2.4,5.6-0.2,12-5.8,14.4l-30.4,12.9c-5.6,2.4-8.2,8.8-5.8,14.4l0,0
			c2.4,5.6,8.8,8.2,14.4,5.8l63.1-26.8c5.6-2.4,12,0.2,14.4,5.8l0,0c2.4,5.6-0.2,12-5.8,14.4l-62.8,26.7c-5.6,2.4-8.2,8.8-5.8,14.4
			v0c2.4,5.6,8.8,8.2,14.4,5.8l50-21.3c5.6-2.4,12,0.2,14.4,5.8v0c2.4,5.6-0.2,12-5.8,14.4l-46.3,19.7c-5.6,2.4-8.2,8.8-5.8,14.4h0
			c2.4,5.6,8.8,8.2,14.4,5.8l92.7-39.4l73.3-31.2c5.6-2.4,8.2-8.8,5.8-14.4l-85.8-201.7c-2.4-5.6-8.8-8.2-14.4-5.8L1440.8,1627.1z"
			/>
		<defs>
			<filter id="Adobe_OpacityMaskFilter_9_" filterUnits="userSpaceOnUse" x="1388.4" y="1581.1" width="259.4" height="274.6">
				<feColorMatrix  type="matrix" values="1 0 0 0 0  0 1 0 0 0  0 0 1 0 0  0 0 0 1 0"/>
			</filter>
		</defs>
		<mask maskUnits="userSpaceOnUse" x="1388.4" y="1581.1" width="259.4" height="274.6" id="SVGID_15_">
			<g class="st35">
				
					<ellipse transform="matrix(0.9202 -0.3915 0.3915 0.9202 -569.5934 708.9534)" class="st4" cx="1454" cy="1751.5" rx="117.8" ry="117.8"/>
			</g>
		</mask>
		<path class="st36" d="M1473.5,1613.2l-70.1,29.8c-5.6,2.4-8.2,8.8-5.8,14.4l0,0c2.4,5.6,8.8,8.2,14.4,5.8l39.4-16.7
			c5.6-2.4,12,0.2,14.4,5.8l0,0c2.4,5.6-0.2,12-5.8,14.4l-64.8,27.6c-5.6,2.4-8.2,8.8-5.8,14.4v0c2.4,5.6,8.8,8.2,14.4,5.8
			l96.6-41.1c5.6-2.4,12,0.2,14.4,5.8l0,0c2.4,5.6-0.2,12-5.8,14.4l-56.7,24.1c-5.6,2.4-8.2,8.8-5.8,14.4l0,0
			c2.4,5.6,8.8,8.2,14.4,5.8l35.2-15c5.6-2.4,12,0.2,14.4,5.8l0,0c2.4,5.6-0.2,12-5.8,14.4l-53,22.6c-5.6,2.4-8.2,8.8-5.8,14.4l0,0
			c2.4,5.6,8.8,8.2,14.4,5.8l92.4-39.3c5.6-2.4,12,0.2,14.4,5.8v0c2.4,5.6-0.2,12-5.8,14.4l-126.8,53.9c-5.6,2.4-8.2,8.8-5.8,14.4
			l0,0c2.4,5.6,8.8,8.2,14.4,5.8l82.9-35.3c5.6-2.4,12,0.2,14.4,5.8l0,0c2.4,5.6-0.2,12-5.8,14.4l-21.5,9.2
			c-5.6,2.4-8.2,8.8-5.8,14.4v0c2.4,5.6,8.8,8.2,14.4,5.8l46.4-19.7l73.3-31.2c5.6-2.4,8.2-8.8,5.8-14.4l-85.8-201.7
			c-2.4-5.6-8.8-8.2-14.4-5.8L1473.5,1613.2z"/>
	</g>
</g>
<g>
	<radialGradient id="SVGID_16_" cx="1429.604" cy="325.258" r="238.0074" gradientUnits="userSpaceOnUse">
		<stop  offset="0" style="stop-color:#5A5888;stop-opacity:0.5136"/>
		<stop  offset="2.153075e-002" style="stop-color:#595686;stop-opacity:0.5241"/>
		<stop  offset="0.4251" style="stop-color:#433F6C;stop-opacity:0.7204"/>
		<stop  offset="0.7656" style="stop-color:#37325E;stop-opacity:0.886"/>
		<stop  offset="1" style="stop-color:#332E5A"/>
	</radialGradient>
	<circle class="st37" cx="1429.6" cy="325.3" r="238"/>
	<g>
		
			<ellipse transform="matrix(0.9202 -0.3915 0.3915 0.9202 -13.2383 585.5778)" class="st38" cx="1429.6" cy="325.3" rx="138.9" ry="138.9"/>
		<defs>
			<filter id="Adobe_OpacityMaskFilter_10_" filterUnits="userSpaceOnUse" x="1352.3" y="124.4" width="305.8" height="323.6">
				<feColorMatrix  type="matrix" values="1 0 0 0 0  0 1 0 0 0  0 0 1 0 0  0 0 0 1 0"/>
			</filter>
		</defs>
		<mask maskUnits="userSpaceOnUse" x="1352.3" y="124.4" width="305.8" height="323.6" id="SVGID_17_">
			<g class="st39">
				
					<ellipse transform="matrix(0.9202 -0.3915 0.3915 0.9202 -13.2383 585.5778)" class="st4" cx="1429.6" cy="325.3" rx="138.9" ry="138.9"/>
			</g>
		</mask>
		<path class="st40" d="M1452.5,162.2l-82.6,35.1c-6.6,2.8-9.6,10.4-6.8,16.9v0c2.8,6.6,10.4,9.6,16.9,6.8l46.4-19.7
			c6.6-2.8,14.2,0.3,16.9,6.8l0,0c2.8,6.6-0.3,14.2-6.8,16.9l-76.4,32.5c-6.6,2.8-9.6,10.4-6.8,16.9v0c2.8,6.6,10.4,9.6,16.9,6.8
			l113.9-48.5c6.6-2.8,14.2,0.3,16.9,6.8v0c2.8,6.6-0.3,14.2-6.8,16.9l-66.8,28.4c-6.6,2.8-9.6,10.4-6.8,16.9v0
			c2.8,6.6,10.4,9.6,16.9,6.8l41.4-17.6c6.6-2.8,14.2,0.3,16.9,6.8v0c2.8,6.6-0.3,14.2-6.8,16.9l-62.5,26.6
			c-6.6,2.8-9.6,10.4-6.8,16.9v0c2.8,6.6,10.4,9.6,16.9,6.8l109-46.4c6.6-2.8,14.2,0.3,16.9,6.8l0,0c2.8,6.6-0.3,14.2-6.8,16.9
			l-149.5,63.6c-6.6,2.8-9.6,10.4-6.8,16.9v0c2.8,6.6,10.4,9.6,16.9,6.8l97.8-41.6c6.6-2.8,14.2,0.3,16.9,6.8l0,0
			c2.8,6.6-0.3,14.2-6.8,16.9l-25.4,10.8c-6.6,2.8-9.6,10.4-6.8,16.9v0c2.8,6.6,10.4,9.6,16.9,6.8l54.7-23.3l86.4-36.8
			c6.6-2.8,9.6-10.4,6.8-16.9l-101.1-237.7c-2.8-6.6-10.4-9.6-16.9-6.8L1452.5,162.2z"/>
	</g>
</g>
<g>
	<g>
		
			<radialGradient id="SVGID_18_" cx="2216.3232" cy="918.6867" r="296.4738" gradientTransform="matrix(0.9568 0 0 0.9524 63.3749 57.1012)" gradientUnits="userSpaceOnUse">
			<stop  offset="0" style="stop-color:#39AEB9;stop-opacity:0.5"/>
			<stop  offset="0.1992" style="stop-color:#388096;stop-opacity:0.5996"/>
			<stop  offset="0.3984" style="stop-color:#375F7D;stop-opacity:0.6992"/>
			<stop  offset="0.5839" style="stop-color:#35496D;stop-opacity:0.792"/>
			<stop  offset="0.7517" style="stop-color:#343A62;stop-opacity:0.8759"/>
			<stop  offset="0.896" style="stop-color:#33315C;stop-opacity:0.948"/>
			<stop  offset="1" style="stop-color:#332E5A"/>
		</radialGradient>
		<ellipse class="st41" cx="2184" cy="932.1" rx="283.7" ry="282.4"/>
		<g>
			<g>
				<path class="st42" d="M2338.7,869.7c35.2,85-5.5,182.3-90.9,217.3c-85.4,35-183.1-5.5-218.3-90.5c-35.2-85,5.5-182.3,90.9-217.3
					C2205.7,744.2,2303.5,784.7,2338.7,869.7z"/>
				<defs>
					<filter id="Adobe_OpacityMaskFilter_11_" filterUnits="userSpaceOnUse" x="2031" y="713.1" width="380.8" height="414.4">
						<feColorMatrix  type="matrix" values="1 0 0 0 0  0 1 0 0 0  0 0 1 0 0  0 0 0 1 0"/>
					</filter>
				</defs>
				<mask maskUnits="userSpaceOnUse" x="2031" y="713.1" width="380.8" height="414.4" id="SVGID_19_">
					<g class="st43">
						<path class="st4" d="M2338.7,869.7c35.2,85-5.5,182.3-90.9,217.3c-85.4,35-183.1-5.5-218.3-90.5
							c-35.2-85,5.5-182.3,90.9-217.3C2205.7,744.2,2303.5,784.7,2338.7,869.7z"/>
					</g>
				</mask>
				<path class="st44" d="M2167.3,757.2l-126.6,52c-7.9,3.3-11.7,12.3-8.5,20.2l0,0c3.3,7.9,12.4,11.7,20.3,8.4l55.7-22.9
					c7.9-3.3,17,0.5,20.3,8.4v0c3.3,7.9-0.5,17-8.5,20.2l-77.2,31.7c-7.9,3.3-11.7,12.3-8.5,20.2v0c3.3,7.9,12.4,11.7,20.3,8.4
					l70.8-29.1c7.9-3.3,17,0.5,20.3,8.4v0c3.3,7.9-0.5,17-8.5,20.2l-36.2,14.8c-7.9,3.3-11.7,12.3-8.5,20.2v0
					c3.3,7.9,12.4,11.7,20.3,8.4l19.1-7.8c7.9-3.3,17,0.5,20.3,8.4v0c3.3,7.9-0.5,17-8.5,20.2l-43.4,17.8
					c-7.9,3.3-11.7,12.3-8.5,20.2v0c3.3,7.9,12.4,11.7,20.3,8.4l90-36.9c7.9-3.3,17,0.5,20.3,8.4l0,0c3.3,7.9-0.5,17-8.5,20.2
					l-89.6,36.8c-7.9,3.3-11.7,12.3-8.5,20.2l0,0c3.3,7.9,12.4,11.7,20.3,8.4l71.2-29.2c7.9-3.3,17,0.5,20.3,8.4v0
					c3.3,7.9-0.5,17-8.5,20.2l-66.1,27.1c-7.9,3.3-11.7,12.3-8.5,20.2v0c3.3,7.9,12.4,11.7,20.3,8.4l132.2-54.3l104.5-42.9
					c7.9-3.3,11.7-12.3,8.5-20.2l-118.6-286.3c-3.3-7.9-12.4-11.7-20.3-8.4L2167.3,757.2z"/>
			</g>
			<path class="st45" d="M2126.4,1089.3l-66,24.5l-0.1-0.3l-148,54.9c-5.4,2-11.5-0.7-13.5-6.1v-0.1c-2-5.4,0.7-11.5,6.2-13.5
				l81.9-30.4c5.4-2,8.2-8,6.2-13.4v-0.1c-2-5.4-8.1-8.2-13.5-6.1l-52.4,19.5c-5.4,2-11.5-0.7-13.5-6.1c-2.1-5.4,0.7-11.5,6.2-13.5
				l80.2-29.2c5.5-2,8.3-8.1,6.2-13.5v0c-2-5.4-8.1-8.2-13.5-6.2l-106.9,39.1c-5.5,2-11.5-0.8-13.5-6.1l0-0.1
				c-2.1-5.4,0.7-11.5,6.2-13.5l59.8-22.2c5.4-2,8.2-8,6.1-13.4v0c-2-5.4-8.1-8.2-13.5-6.2l-95.9,35.6c-5.4,2-11.5-0.7-13.5-6.1
				v-0.1c-2-5.4,0.7-11.4,6.2-13.4l80.4-29.8c5.4-2,8.2-8,6.2-13.4l0-0.1c-2-5.4-8.1-8.2-13.5-6.2l-62.9,23.4
				c-5.4,2-11.5-0.7-13.5-6.1v-0.1c-2.1-5.4,0.7-11.5,6.2-13.5l145.3-53.9c5.4-2,8.2-8,6.2-13.4l0-0.1c-2-5.4-8.1-8.2-13.5-6.2
				l-90.8,33.8c-5.4,2-11.5-0.8-13.5-6.2l0-0.1c-2-5.4,0.8-11.4,6.2-13.4l155.5-57.7c-12.4,36.7-12.1,77.9,3.9,116.5
				c1.7,4.1,3.5,8.1,5.6,12c0.1,0.2,0.2,0.4,0.4,0.7C2040.8,1018.2,2052.8,1061.4,2126.4,1089.3z"/>
			<path class="st45" d="M2526.4,940.5l-127,47.1l0.1,0.4l-63.8,23.7c16.4-27.2,13.7-103.9,13.7-103.9c-2-12.8-5.5-25.5-10.7-38
				c-14.4-34.8-39.4-62.2-69.7-80l137.5-51.1c5.4-2,11.5,0.7,13.5,6.1v0.1c2.1,5.4-0.7,11.5-6.2,13.5L2323,792
				c-5.4,2-8.2,8.1-6.2,13.5l0,0.1c2,5.4,8.1,8.1,13.5,6.1l145.3-53.9c5.4-2,11.5,0.7,13.5,6.1v0.1c2,5.4-0.7,11.4-6.2,13.4
				l-62.9,23.4c-5.4,2-8.2,8.1-6.2,13.5l0,0.1c2,5.4,8.1,8.2,13.5,6.1l80.4-29.8c5.3-2,11.1,0.5,13.3,5.6c0.1,0.2,0.2,0.3,0.2,0.5
				l0,0.1c0,0.2,0.1,0.3,0.1,0.5c1.7,5.3-1,11-6.3,13l-95.9,35.6c-5.4,2-8.2,8-6.2,13.4l0,0c2,5.4,8.1,8.2,13.5,6.2l59.7-22.2
				c5.4-2,11.5,0.7,13.5,6.1l0,0.1c2,5.4-0.7,11.4-6.1,13.4l-106.5,40.1c-5,1.9-7.8,7.2-6.5,12.3l0.1,0.4c0.1,0.3,0.2,0.5,0.3,0.8
				l0,0c2,5.4,8.1,8.2,13.6,6.1l79.9-30.2c5.4-2.1,11.5,0.7,13.6,6.1c2,5.4-0.7,11.5-6.2,13.5l-52.4,19.5c-5.4,2-8.2,8-6.1,13.4v0.1
				c2,5.4,8.1,8.2,13.5,6.2l81.9-30.4c5.4-2,11.5,0.7,13.5,6.1v0.1C2534.6,932.4,2531.8,938.4,2526.4,940.5z"/>
		</g>
	</g>
	<path class="st45" d="M2335.7,1011.6L2335.7,1011.6l-5.2,1.9l-204.1,75.7c-73.6-27.9-85.5-71.1-90.9-80.1c1.6,2,15,17.7,23.8,19.2
		c4,0.2,8.3,0.1,12.8-0.2c5.5-0.3,11.4-0.9,17.7-1.8c38.9-5.3,91-20.9,139.8-40c38.3-15,74.6-32.1,100.9-48.2
		c0.5-0.4,18.4-13.3,18.9-30.6C2349.4,907.7,2352,984.4,2335.7,1011.6z"/>
</g>
<g>
	<g>
		<path class="st42" d="M728.4,496.8L936,329.3l-96.8-120L631.6,376.8l-82.3,66.4l-23.2,18.7L386.3,574.7c0,0,0,0,0,0c0,0,0,0,0,0
			c-3,2.4-3,7.3-0.1,11c3,3.7,7.8,4.7,10.8,2.3c0,0,0.1,0,0.1,0l39-31.4c3-2.4,7.9-1.4,10.8,2.3s2.9,8.6-0.1,11.1l-78,62.9
			c0,0,0,0,0,0c0,0,0,0,0,0c-3,2.4-3,7.4-0.1,11.1c3,3.7,7.8,4.7,10.8,2.3c0,0,0.1,0,0.1,0l34.6-27.9c3-2.4,7.9-1.4,10.8,2.3
			c3,3.7,2.9,8.6-0.1,11.1l-19.2,15.5c0,0,0,0,0,0c0,0,0,0,0,0c-2.8,2.3-2.8,6.9-0.1,10.4c2.8,3.4,7.3,4.4,10.1,2.1c0,0,0.1,0,0.1,0
			l31.5-25.4c3-2.4,7.9-1.4,10.8,2.3c3,3.7,2.9,8.6-0.1,11.1l-44,35.5c0,0,0,0,0,0c0,0,0,0,0,0c-3.2,2.5-3.2,7.7-0.1,11.6
			c3.1,3.9,8.2,4.9,11.3,2.4c0,0,0.1,0,0.1,0l66.4-53.5c3-2.4,7.9-1.4,10.8,2.3c3,3.7,2.9,8.6-0.1,11.1l-26.1,21.1
			c-0.2,0.1-0.4,0.2-0.6,0.4c-3,2.4-3,7.4-0.1,11.1c3,3.7,7.8,4.7,10.8,2.3c0,0,0.1,0,0.1,0l158.4-127.8c0.4-0.3,0.7-0.6,1-0.9
			L728.4,496.8L728.4,496.8z"/>
		
			<ellipse transform="matrix(0.7783 -0.6279 0.6279 0.7783 -353.9414 408.0792)" class="st42" cx="400.9" cy="705.3" rx="9" ry="9"/>
		<path class="st42" d="M467.3,696.4c-3-3.7-8.4-4.3-12-1.3l-15.1,12.1c-3.7,3-4.3,8.4-1.3,12c3,3.7,8.4,4.3,12,1.3l15.1-12.1
			C469.7,705.4,470.3,700,467.3,696.4z"/>
		<path class="st42" d="M372.9,596.5c-3-3.7-8.4-4.3-12-1.3l-43,34.7c-3.7,3-4.3,8.4-1.3,12c3,3.7,8.4,4.3,12,1.3l43-34.7
			C375.3,605.6,375.8,600.2,372.9,596.5z"/>
	</g>
	<path class="st6" d="M598.9,425.9c-2.6-3.2-7.3-3.7-10.5-1.1L569.6,440c-3.2,2.6-3.7,7.3-1.1,10.5c2.6,3.2,7.3,3.7,10.5,1.1
		l18.8-15.2C601,433.8,601.5,429.1,598.9,425.9z"/>
	<path class="st6" d="M555.5,613.4l-0.1-0.2c-2.5-3.2-7.2-3.6-10.3-1.1l-11.8,9.5c-3.2,2.5-3.6,7.2-1.1,10.3l0.1,0.2
		c2.5,3.2,7.2,3.6,10.3,1.1l11.8-9.5C557.5,621.2,558,616.6,555.5,613.4z"/>
	<path class="st6" d="M628.2,545.2c-0.2,0.1-0.4,0.2-0.6,0.4c-3.2,2.6-3.7,7.2-1.1,10.4c2.6,3.2,7.2,3.7,10.4,1.1c0,0,0.1,0,0.1,0
		l204.5-164.9c0.4-0.3,0.7-0.6,1.1-0.9l86.9-70.1l-83.7-103.8l-87.1,70.3L734,307.5L613,405.2c0,0,0,0,0,0c0,0,0,0,0,0
		c-3.2,2.6-3.7,7.2-1.1,10.4c2.6,3.2,7.2,3.7,10.4,1.1c0,0,0.1,0,0.1,0l14.3-11.5c3.2-2.6,7.9-2.1,10.4,1.1
		c2.6,3.2,2.1,7.9-1.1,10.4L517.8,520c0,0,0,0,0,0c0,0,0,0,0,0c-3.2,2.6-3.7,7.2-1.1,10.4c2.6,3.2,7.2,3.7,10.4,1.1c0,0,0.1,0,0.1,0
		l82-66.2c3.2-2.6,7.9-2.1,10.4,1.1c2.6,3.2,2.1,7.9-1.1,10.4l-54.5,43.9c0,0,0,0,0,0c0,0,0,0,0,0c-3,2.4-3.5,6.8-1,9.8
		c2.4,3,6.8,3.5,9.8,1c0,0,0.1,0,0.1,0l67.6-54.5c3.2-2.6,7.9-2.1,10.4,1.1c2.6,3.2,2.1,7.9-1.1,10.4L547,571.6c0,0,0,0,0,0
		c0,0,0,0,0,0c-3.3,2.7-3.9,7.6-1.2,10.9c2.7,3.3,7.6,3.9,10.9,1.2c0,0,0.1,0,0.1,0l126.5-102c3.2-2.6,7.9-2.1,10.4,1.1
		c2.6,3.2,2.1,7.9-1.1,10.4L628.2,545.2z"/>
	
		<ellipse transform="matrix(0.7505 -0.6609 0.6609 0.7505 -239.1115 536.6682)" class="st6" cx="591.2" cy="585" rx="7.4" ry="7.4"/>
	<path class="st6" d="M497.3,583.7c2.5,3.1,7,3.6,10.1,1.1l12.8-10.3c3.1-2.5,3.6-7,1.1-10.1c-2.5-3.1-7-3.6-10.1-1.1l-12.8,10.3
		C495.3,576.1,494.8,580.6,497.3,583.7z"/>
	<path class="st6" d="M854,400.7c-0.6,0.5-1.2,1.1-1.9,1.6L854,400.7L854,400.7z"/>
	<g>
		<path class="st46" d="M738.2,447L738.2,447c-2.6-3.2-7.2-3.7-10.4-1.1l-14.3,11.6c-3.2,2.6-3.7,7.2-1.1,10.4l0,0
			c2.6,3.2,7.2,3.7,10.4,1.1l14.3-11.6C740.2,454.8,740.7,450.2,738.2,447z"/>
		<path class="st46" d="M658.7,435L658.7,435c-2.6-3.2-7.2-3.7-10.4-1.1l-10.1,8.1c-3.2,2.6-3.7,7.2-1.1,10.4l0,0
			c2.6,3.2,7.2,3.7,10.4,1.1l10.1-8.1C660.7,442.9,661.2,438.2,658.7,435z"/>
		<path class="st46" d="M830.4,381.9c0.9-0.6,1.8-1.3,2.6-2c0.9-0.7,1.7-1.4,2.5-2.1l84.6-68.2L855,228.9l-87.1,70.3c0,0,0,0,0,0
			c0,0,0,0,0,0l-5.7,4.6c0,0,0,0,0,0l-80,64.6c-3.2,2.6-3.7,7.2-1.1,10.4l0,0c2.6,3.2,7.2,3.7,10.4,1.1l36.7-29.6
			c3.2-2.6,7.8-2.1,10.4,1.1c2.6,3.2,2.1,7.9-1.1,10.4l-63.2,50.3c-3.2,2.6-3.7,7.2-1.1,10.4l0.1,0.1c2.5,3.2,7.1,3.7,10.3,1.2
			l33.3-26.3c3.2-2.5,7.8-2,10.3,1.2l0.1,0.1c2.6,3.2,2.1,7.8-1.1,10.4l-53.2,42.9c-3.2,2.6-3.7,7.2-1.1,10.4l0,0
			c2.6,3.2,7.2,3.7,10.4,1.1l70.1-56.5c3.2-2.6,7.8-2.1,10.4,1.1l0,0c2.6,3.2,2.1,7.8-1.1,10.4l-12.2,9.8c-3.2,2.6-3.7,7.2-1.1,10.4
			l0,0c2.6,3.2,7.2,3.7,10.4,1.1l68.6-55.4c0.3-0.2,0.6-0.5,0.8-0.8L830.4,381.9z"/>
	</g>
	<path class="st47" d="M941.9,294.9c11.5-68,39.6-81.3,67.1-104.5c10.5-8.9,18.7-24.1,13.3-30c-5.4-5.9-21.3-1.7-32.1,6.7
		c-28.5,22-47.5,46.6-116.3,43.5c-51-3.2-55.5-7.4,4.1,66.4S934.2,345.4,941.9,294.9z"/>
	<path class="st21" d="M758.1,440.3c0.3-0.2,0.5-0.3,0.7-0.5L758.1,440.3L758.1,440.3z"/>
	<path class="st21" d="M748.8,428.8l0.7-0.6C749.3,428.4,749.1,428.7,748.8,428.8L748.8,428.8z"/>
	<path class="st6" d="M770.3,293.2c-0.6,0.5-1.2,1.1-1.9,1.6L770.3,293.2L770.3,293.2z"/>
	<path class="st6" d="M470.9,573.5l-6-7.4c-0.9-1.2-0.8-2.8,0.4-3.8l35.7-28.8c1.2-0.9,2.8-0.8,3.8,0.4l6,7.4
		c0.9,1.2,0.8,2.8-0.4,3.8l-35.7,28.8C473.5,574.9,471.8,574.7,470.9,573.5z"/>
	<path class="st6" d="M496.4,514.8l-6-7.4c-0.9-1.2-0.8-2.8,0.4-3.8l53.5-43.2c1.2-0.9,2.8-0.8,3.8,0.4l6,7.4
		c0.9,1.2,0.8,2.8-0.4,3.8l-53.5,43.2C499,516.1,497.3,515.9,496.4,514.8z"/>
</g>
<g>
	<radialGradient id="SVGID_20_" cx="286.8643" cy="240.071" r="161.0637" gradientUnits="userSpaceOnUse">
		<stop  offset="0" style="stop-color:#118CCF;stop-opacity:0.5"/>
		<stop  offset="6.406772e-002" style="stop-color:#227AB5;stop-opacity:0.532"/>
		<stop  offset="0.2066" style="stop-color:#2E6092;stop-opacity:0.6033"/>
		<stop  offset="0.3536" style="stop-color:#324D7B;stop-opacity:0.6768"/>
		<stop  offset="0.5037" style="stop-color:#333F6B;stop-opacity:0.7518"/>
		<stop  offset="0.6582" style="stop-color:#333561;stop-opacity:0.8291"/>
		<stop  offset="0.8198" style="stop-color:#332F5C;stop-opacity:0.9099"/>
		<stop  offset="1" style="stop-color:#332E5A"/>
	</radialGradient>
	<circle class="st48" cx="286.9" cy="240.1" r="161.1"/>
	<g>
		
			<ellipse transform="matrix(0.9202 -0.3915 0.3915 0.9202 -71.0841 131.4517)" class="st49" cx="286.9" cy="240.1" rx="94.5" ry="94.5"/>
		<defs>
			<filter id="Adobe_OpacityMaskFilter_12_" filterUnits="userSpaceOnUse" x="184.9" y="104" width="257.3" height="234.6">
				<feColorMatrix  type="matrix" values="1 0 0 0 0  0 1 0 0 0  0 0 1 0 0  0 0 0 1 0"/>
			</filter>
		</defs>
		<mask maskUnits="userSpaceOnUse" x="184.9" y="104" width="257.3" height="234.6" id="SVGID_21_">
			<g class="st50">
				
					<ellipse transform="matrix(0.9202 -0.3915 0.3915 0.9202 -71.0841 131.4517)" class="st4" cx="286.9" cy="240.1" rx="94.5" ry="94.5"/>
			</g>
		</mask>
		<path class="st51" d="M280.6,138.4L206,170.2c-5.9,2.5-9.2,8.2-7.3,12.7v0c1.9,4.5,8.2,6,14.2,3.5l41.9-17.8
			c5.9-2.5,12.3-0.9,14.2,3.5l0,0c1.9,4.5-1.4,10.1-7.3,12.7L192.7,214c-5.9,2.5-9.2,8.2-7.3,12.7l0,0c1.9,4.5,8.2,6,14.2,3.5
			l102.8-43.7c5.9-2.5,12.3-0.9,14.2,3.5l0,0c1.9,4.5-1.4,10.1-7.3,12.7L249,228.3c-5.9,2.5-9.2,8.2-7.3,12.7l0,0
			c1.9,4.5,8.2,6,14.2,3.5l37.4-15.9c5.9-2.5,12.3-0.9,14.2,3.5l0,0c1.9,4.5-1.4,10.1-7.3,12.7l-56.4,24c-5.9,2.5-9.2,8.2-7.3,12.7
			l0,0c1.9,4.5,8.2,6,14.2,3.5l98.4-41.8c5.9-2.5,12.3-0.9,14.2,3.5l0,0c1.9,4.5-1.4,10.1-7.3,12.7l-135,57.4
			c-5.9,2.5-9.2,8.2-7.3,12.7l0,0c1.9,4.5,8.2,6,14.2,3.5l88.3-37.5c5.9-2.5,12.3-0.9,14.2,3.5l0,0c1.9,4.5-1.4,10.1-7.3,12.7
			l-22.9,9.7c-5.9,2.5-9.2,8.2-7.3,12.7l0,0c1.9,4.5,8.2,6,14.2,3.5l49.4-21l78-33.2c5.9-2.5,9.2-8.2,7.3-12.7l-68.8-161.8
			c-1.9-4.5-8.2-6-14.2-3.5L280.6,138.4z"/>
	</g>
</g>
<g>
	<radialGradient id="SVGID_22_" cx="1667.6115" cy="722.4357" r="139.5432" gradientUnits="userSpaceOnUse">
		<stop  offset="0" style="stop-color:#118CCF;stop-opacity:0.5"/>
		<stop  offset="6.406772e-002" style="stop-color:#227AB5;stop-opacity:0.532"/>
		<stop  offset="0.2066" style="stop-color:#2E6092;stop-opacity:0.6033"/>
		<stop  offset="0.3536" style="stop-color:#324D7B;stop-opacity:0.6768"/>
		<stop  offset="0.5037" style="stop-color:#333F6B;stop-opacity:0.7518"/>
		<stop  offset="0.6582" style="stop-color:#333561;stop-opacity:0.8291"/>
		<stop  offset="0.8198" style="stop-color:#332F5C;stop-opacity:0.9099"/>
		<stop  offset="1" style="stop-color:#332E5A"/>
	</radialGradient>
	<circle class="st52" cx="1667.6" cy="722.4" r="139.5"/>
	<g>
		
			<ellipse transform="matrix(0.9202 -0.3915 0.3915 0.9202 -149.721 710.4417)" class="st49" cx="1667.6" cy="722.4" rx="81.9" ry="81.9"/>
		<defs>
			<filter id="Adobe_OpacityMaskFilter_13_" filterUnits="userSpaceOnUse" x="1579.3" y="604.6" width="222.9" height="203.2">
				<feColorMatrix  type="matrix" values="1 0 0 0 0  0 1 0 0 0  0 0 1 0 0  0 0 0 1 0"/>
			</filter>
		</defs>
		<mask maskUnits="userSpaceOnUse" x="1579.3" y="604.6" width="222.9" height="203.2" id="SVGID_23_">
			<g class="st53">
				
					<ellipse transform="matrix(0.9202 -0.3915 0.3915 0.9202 -149.721 710.4417)" class="st4" cx="1667.6" cy="722.4" rx="81.9" ry="81.9"/>
			</g>
		</mask>
		<path class="st54" d="M1662.2,634.4l-64.6,27.5c-5.1,2.2-8,7.1-6.3,11l0,0c1.6,3.9,7.1,5.2,12.3,3.1l36.3-15.4
			c5.1-2.2,10.6-0.8,12.3,3.1v0c1.6,3.9-1.2,8.8-6.3,11l-59.7,25.4c-5.1,2.2-8,7.1-6.3,11v0c1.6,3.9,7.1,5.2,12.3,3.1l89.1-37.9
			c5.1-2.2,10.6-0.8,12.3,3.1l0,0c1.6,3.9-1.2,8.8-6.3,11l-52.3,22.2c-5.1,2.2-8,7.1-6.3,11v0c1.6,3.9,7.1,5.2,12.3,3.1l32.4-13.8
			c5.1-2.2,10.6-0.8,12.3,3.1l0,0c1.6,3.9-1.2,8.8-6.3,11l-48.9,20.8c-5.1,2.2-8,7.1-6.3,11v0c1.6,3.9,7.1,5.2,12.3,3.1l85.2-36.3
			c5.1-2.2,10.6-0.8,12.3,3.1l0,0c1.6,3.9-1.2,8.8-6.3,11l-116.9,49.7c-5.1,2.2-8,7.1-6.3,11l0,0c1.6,3.9,7.1,5.2,12.3,3.1
			l76.5-32.5c5.1-2.2,10.6-0.8,12.3,3.1l0,0c1.6,3.9-1.2,8.8-6.3,11l-19.9,8.4c-5.1,2.2-8,7.1-6.3,11l0,0c1.6,3.9,7.1,5.2,12.3,3.1
			l42.8-18.2l67.6-28.8c5.1-2.2,8-7.1,6.3-11l-59.6-140.2c-1.6-3.9-7.1-5.2-12.3-3.1L1662.2,634.4z"/>
	</g>
</g>
</svg>
