<svg xmlns="http://www.w3.org/2000/svg" viewBox="0 0 300 300"><defs><style>.cls-1{isolation:isolate;}.cls-2{fill:#52873d;}.cls-3{fill:#7cc253;}.cls-4{fill:#4e683e;}.cls-5{fill:#6e9b4c;}.cls-6{fill:#fff2bd;}.cls-7{fill:#212f54;}.cls-8{fill:#5f7ebf;}.cls-11,.cls-12,.cls-9{fill:#231f20;}.cls-10{fill:#fff;}.cls-11,.cls-12{mix-blend-mode:overlay;}.cls-12{stroke:#212f54;stroke-miterlimit:10;}.cls-13{fill:#333;opacity:0.2;}</style></defs><title>avatar</title><g class="cls-1"><g id="Layer_1" data-name="Layer 1"><rect class="cls-2" width="300" height="300"/><path class="cls-3" d="M182.74,179.48l46.68-11.15L268.51,173s4.09,18.37,0,23-9.08,4.57-10.25,10.45-14.08,6.6-17,4.48-14.24-10-26.78-7.11-21.29-12-23.81-12.76S180.58,184,182.74,179.48Z"/><path class="cls-4" d="M174.31,147.66c0.31,11.38,2,21.3,4.91,26.82,9.87,18.77,53.82,32.62,73.58,25.75,15.55-5.41,19.1-21.56,12.67-51.54-1.73-8.1-4.2-17.22-7.35-27.4-14.82-47.86-35.11-47.1-59.89-41C180.75,84.58,173.56,120.37,174.31,147.66Z"/><path class="cls-5" d="M174.31,147.66c0.31,11.38,2,21.3,4.91,26.82,2.25,4.29,6.29,8.32,11.41,11.91h0c8.52,6,20,10.7,31.35,13.33,10.86,2.53,21.53,3.12,29.18,1h0c0.55-.15,1.09-0.31,1.61-0.49,14-4.89,18.29-18.53,14.26-43.2q-0.66-4-1.59-8.33a69.56,69.56,0,0,1-12.34-4.62c-12.13-5.48-11.35,2.35-21.52,10.18S214,146,207.36,148s-14.08,12.13-22.69,3.91C182.28,149.61,178.51,148.33,174.31,147.66Z"/><path class="cls-6" d="M218,96.19c31.75,3.36,40.09,52.29,40.09,52.29s10.16,35-29.54,41.81-46-38-47.49-48.47S186.27,92.84,218,96.19Z"/><path class="cls-6" d="M251.19,200.72c0.55-.15,1.09-0.31,1.61-0.49,14-4.89,18.29-18.53,14.26-43.2h0s0.16,22.75-2.48,30S251.52,200.52,251.19,200.72Z"/><path class="cls-6" d="M190.65,186.39c8.52,6,20,10.7,31.35,13.33h0s-14-5.16-17.41-6.75Z"/><path class="cls-7" d="M199.64,157q0,2,.15,4c1.23,14.27,13.09,25.7,24.22,24.52s13.78-5,13.78-25.76c0-.59,0-1.17,0-1.74-0.55-19.72-10.38-31.58-21.48-30C205.9,129.51,199.75,143.7,199.64,157Z"/><path class="cls-8" d="M232.48,177.3c-0.54,2.83-1.86,6.69-9.87,5.69s-14.43-5.46-13.82-7.57,7.13,0.44,11.82,1.22S233,174.47,232.48,177.3Z"/><path class="cls-9" d="M218.74,140.28s10-.45,10.64,20.83-5,18.46-8.73,18.68-10.09-6.9-9.88-17.41S211.63,140.52,218.74,140.28Z"/><path class="cls-10" d="M215,170.89c1.85-.22,2.41,2.87,2.37,4.13s0.2,4.16-2,3.83-2-1.58-2-3.63S213.11,171.11,215,170.89Z"/><path class="cls-10" d="M214.26,140.62s1.49,0,1.58,2.24-0.74,2-1.3,2a1.79,1.79,0,0,1-1.47-1.87C213.11,141.87,213.2,140.65,214.26,140.62Z"/><path class="cls-11" d="M199.64,157q0,2,.15,4c0,0.17,0,.35.05,0.52,1.23,11.82,9.75,21.6,19,23.68a16,16,0,0,0,5.2.32c10.81-1.15,13.63-4.79,13.78-24,0-.17,0-0.35.05-0.52q0.17-2,.15-4c-1.81-.46-1.32,1.21-4.55,0-2.55-.93-6.57,1.25-7.2,1.38s0.1,0-.63-0.45-4-.86-6.8-0.25c-2.76-.61-5.55-1.05-6.79.25a2.24,2.24,0,0,1-.63.45c-2.44-.71-4.65-2.32-7.2-1.38C201,158.21,201.44,156.53,199.64,157Z"/><path class="cls-3" d="M36.94,158l48.49-16.73,34.77,4s11.62,1.77,10.36,4.41,2.16,11.68-1.11,15.11S124.5,176,124,179.39s1.51,13.49-9.2,16.06-18.2,1.69-24.36,2-10.71-1-15,8.8S62.83,210.78,64,208.14s-6.14-9.1-10.33-8.95-9.47-6.55-13.87-4.74-8.22-.56-6.6-4.65,2.93-6,2.2-7.63-4.18-9.59-2.53-12.57S34.9,158.68,36.94,158Z"/><path class="cls-3" d="M98.54,203.47c2.46,4.05-18.36,7.39-18.27,5.23s1.58-4.55,8-6.67S96.08,199.42,98.54,203.47Z"/><path class="cls-4" d="M130.55,142.39l0,0.56c-0.35,11.15-2,20.83-4.89,26.26C115.77,188,71.82,201.83,52.06,195c-15.55-5.41-19.1-21.56-12.67-51.54,1.73-8.1,4.2-17.22,7.35-27.4,0.4-1.3.81-2.56,1.22-3.79,5.9-17.7,12.65-28.14,20.16-33.91,11.18-8.6,24.09-6.87,38.51-3.32,12.22,3,19.42,21.41,22.38,41.55A152.31,152.31,0,0,1,130.55,142.39Z"/><path class="cls-5" d="M130.55,142.39c-0.31,11.38-2,21.3-4.91,26.82-2.25,4.29-6.29,8.32-11.41,11.91h0c-8.52,6-20,10.7-31.35,13.33-10.86,2.53-21.53,3.12-29.18,1h0c-0.55-.15-1.09-0.31-1.61-0.49-14-4.89-18.29-18.53-14.26-43.2q0.66-4,1.59-8.33a69.56,69.56,0,0,0,12.34-4.62c12.13-5.48,11.35,2.35,21.52,10.18s17.6-8.22,24.25-6.26,14.08,12.13,22.69,3.91C122.59,144.34,126.36,143.06,130.55,142.39Z"/><path class="cls-6" d="M123.78,136.55c-1.24,9-6.06,43-32.3,48.44a40.82,40.82,0,0,1-15.19,0c-39.71-6.78-29.54-41.81-29.54-41.81s8.33-48.94,40.09-52.29c18.57-2,28.56,10.4,33.34,23.1C123.59,123,124.38,132.21,123.78,136.55Z"/><path class="cls-6" d="M53.67,195.45c-0.55-.15-1.09-0.31-1.61-0.49-14-4.89-18.29-18.53-14.26-43.2h0s-0.16,22.75,2.48,30S53.34,195.25,53.67,195.45Z"/><path class="cls-6" d="M114.21,181.12c-8.52,6-20,10.7-31.35,13.33h0s14-5.16,17.41-6.75Z"/><path class="cls-7" d="M105.23,151.72q0,2-.15,4c-1.23,14.27-13.09,25.7-24.22,24.52s-13.78-5-13.78-25.76c0-.59,0-1.17,0-1.74,0.55-19.72,10.38-31.58,21.48-30C99,124.24,105.12,138.43,105.23,151.72Z"/><path class="cls-8" d="M72.38,172c0.54,2.83,1.86,6.69,9.87,5.69s14.43-5.46,13.82-7.57-7.13.44-11.82,1.22S71.85,169.19,72.38,172Z"/><path class="cls-9" d="M86.13,135s-10-.45-10.64,20.83,5,18.46,8.73,18.68,10.09-6.9,9.88-17.41S93.24,135.25,86.13,135Z"/><path class="cls-10" d="M89.9,165.62c-1.85-.22-2.41,2.87-2.37,4.13s-0.2,4.16,2,3.83,2-1.58,2-3.63S91.75,165.84,89.9,165.62Z"/><path class="cls-10" d="M90.6,135.35s-1.49,0-1.58,2.24,0.74,2,1.3,2a1.79,1.79,0,0,0,1.47-1.87C91.76,136.6,91.66,135.38,90.6,135.35Z"/><path class="cls-12" d="M105.23,151.72q0,2-.15,4c0,0.17,0,.35-0.05.52-1.23,11.82-9.75,21.6-19,23.68a16,16,0,0,1-5.2.32C70,179,67.23,175.4,67.08,156.19c0-.17,0-0.35-0.05-0.52q-0.17-2-.15-4c1.81-.46,1.32,1.21,4.55,0,2.55-.93,6.57,1.25,7.2,1.38s-0.1,0,.63-0.45,4-.86,6.8-0.25c2.76-.61,5.55-1.05,6.79.25a2.24,2.24,0,0,0,.63.45c2.44-.71,4.65-2.32,7.2-1.38C103.91,152.93,103.42,151.25,105.23,151.72Z"/><path class="cls-13" d="M144,132.42c0.36,7.11-15.92,8.17-21.45,8.33-1,0-1.65,0-1.78,0h0a12.76,12.76,0,0,1-7.68-3.44c-2.25-2.45-11.37-13.6-22.1-13.21s-15.19-2.3-21.62-7.34S48,111.36,48,111.36s-9.37-3.45-13-.59S33.62,96.63,52.9,98.63c4.64-10.24,9.73-17,15.23-21.18l9.52,0.22L96.11,94.49l21.74,1.57,8.22,16.82,3,2.8a152.42,152.42,0,0,1,1.55,18.44c0,0.13,1.43-4.79.07,0.15C136.85,130.66,143.74,127.75,144,132.42Z"/><path class="cls-13" d="M120.75,141.65c0.13,0,.79,0,1.78,0A10.69,10.69,0,0,1,120.75,141.65Z"/><path class="cls-2" d="M139.25,136.74c-15-2.86-19.27-5.4-39-18s-40-22.25-57.34-18.6S34.55,100,34.55,100,51.77,64.39,61,66.53s0,0,0,0,26.88-7.55,40.77-3,15.27,10.71,18,18.12,25.79,19.75,25.55,24.43C144.89,114.23,154.24,139.61,139.25,136.74Z"/><path class="cls-10" d="M143.58,125.31c0.15,0.08-24.5-5.65-43.82-18.88S60.56,82.85,43.08,85.91C35.43,87.25,32.43,87,32.43,87s6.66-2,11.44-2.83c17.48-3.06,37.36,7.29,56.68,20.52S143.42,125.23,143.58,125.31Z"/><path class="cls-5" d="M138.25,138.14c-15-2.86-19.27-5.4-39-18-19.56-12.46-40.58-25.26-56.87-18.79l-0.11,0-4.51,1.73h0c-1.68.55-7.08,3.68-7.91,1.13s2-9.12,2.29-9.49-1,4.89.32,6,3.06-1.83,5.9-2.64,18.83-1.44,25.43.39c8.27,2.29,41.52,18.09,46.46,22.79s14.18,11.17,19,12.62,7.53,2.27,13.5,1.39S143.16,139.08,138.25,138.14Z"/></g></g></svg>