<svg id="Layer_1" data-name="Layer 1" xmlns="http://www.w3.org/2000/svg" viewBox="0 0 939.66 464.05"><defs><style>.cls-1{opacity:0.38;}.cls-2{fill:#e47e26;}.cls-3{fill:#fff;}.cls-4{fill:#fdf492;}.cls-5,.cls-9{fill:#221f1f;}.cls-6{fill:#e54d3b;}.cls-7{fill:#010101;opacity:0.2;}.cls-8{fill:#4eb96f;}.cls-9{opacity:0.23;}.cls-10{fill:#af352b;}.cls-11{fill:#717272;}.cls-12{fill:#dddddc;}.cls-13{fill:#616262;}.cls-14{fill:#231f20;}</style></defs><title>header</title><g class="cls-1"><rect class="cls-2" x="195.87" y="237.19" width="254.83" height="254.83" rx="22.84" ry="22.84" transform="translate(50.46 -293.17) rotate(28.05)"/><circle class="cls-3" cx="323.28" cy="364.61" r="100.44" transform="translate(-309.49 294.49) rotate(-61.95)"/><circle class="cls-4" cx="323.28" cy="364.61" r="94.79" transform="translate(-309.49 294.49) rotate(-61.95)"/><circle class="cls-4" cx="376.85" cy="264.07" r="6.52" transform="translate(-192.38 288.51) rotate(-61.95)"/><circle class="cls-4" cx="269.71" cy="465.15" r="6.52" transform="translate(-426.6 300.47) rotate(-61.95)"/><circle class="cls-4" cx="223.13" cy="311.24" r="6.52" transform="translate(-315.45 177.83) rotate(-61.95)"/><rect class="cls-5" x="300.86" y="352.21" width="7.39" height="45.22" rx="2.12" ry="2.12" transform="translate(364.32 -239.73) rotate(66.03)"/><rect class="cls-5" x="357.11" y="336.4" width="7.39" height="72.56" rx="2.12" ry="2.12" transform="translate(637.48 -92.88) rotate(101.2)"/><rect class="cls-6" x="321.57" y="290.41" width="1.96" height="75.32" rx="0.56" ry="0.56" transform="translate(-181.35 -160.35) rotate(-4.05)"/><circle class="cls-4" cx="423.44" cy="417.97" r="6.52" transform="translate(-303.53 411.15) rotate(-61.95)"/><circle class="cls-3" cx="323.28" cy="364.61" r="15.87" transform="translate(-309.49 294.49) rotate(-61.95)"/><path class="cls-7" d="M383.2,252.16l-88.17-47a27.51,27.51,0,0,0-37.22,11.34l-94,176.34a27.51,27.51,0,0,0,11.34,37.22l88.17,47Z" transform="translate(-158.97 -183.97)"/></g><g class="cls-1"><rect class="cls-3" x="668.04" y="384.04" width="397.12" height="63.92" transform="translate(-48.85 -361.1) rotate(12.46)"/><path class="cls-8" d="M1098,288.78l-30.67,138.84L679.61,342l30.67-138.84a24.41,24.41,0,0,1,29.1-18.57l340.1,75.12A24.42,24.42,0,0,1,1098,288.78Z" transform="translate(-158.97 -183.97)"/><path class="cls-8" d="M665.83,404.38L1053.6,490l-30.67,138.84a24.41,24.41,0,0,1-29.1,18.57l-340.1-75.12a24.4,24.4,0,0,1-18.57-29.1Z" transform="translate(-158.97 -183.97)"/><path class="cls-9" d="M909.43,222.11L823.78,609.88l-170-37.56a24.4,24.4,0,0,1-18.57-29.1l75.12-340.1a24.41,24.41,0,0,1,29.1-18.57Z" transform="translate(-158.97 -183.97)"/><rect class="cls-10" x="860.99" y="170.67" width="31.88" height="397.12" transform="translate(168.28 961.91) rotate(-77.54)"/><rect class="cls-10" x="840.33" y="264.22" width="31.89" height="397.12" transform="translate(60.73 1015.1) rotate(-77.54)"/><circle class="cls-10" cx="760.11" cy="238.4" r="22.36" transform="translate(204.4 745.22) rotate(-77.54)"/><rect class="cls-3" x="1001.88" y="276.11" width="60.3" height="44.72" rx="5.25" ry="5.25" transform="translate(-70.3 -399.55) rotate(12.46)"/><path class="cls-5" d="M1007.21,447.06c17.15-77.66-32.09-153.65-109.55-171.67C820.52,257.45,745,304.4,726,384.94c-18.27,77.4,31.89,154.51,109.55,171.67A144,144,0,0,0,1007.21,447.06Z" transform="translate(-158.97 -183.97)"/><circle class="cls-11" cx="866.6" cy="416" r="96.21" transform="translate(114.51 988.51) rotate(-77.54)"/><circle class="cls-12" cx="866.6" cy="416" r="86.4" transform="translate(114.51 988.51) rotate(-77.54)"/><circle class="cls-13" cx="866.6" cy="416" r="59.04" transform="translate(114.51 988.51) rotate(-77.54)"/><circle class="cls-14" cx="866.6" cy="416" r="25.74" transform="translate(114.51 988.51) rotate(-77.54)"/></g></svg>