<svg id="Layer_1" data-name="Layer 1" xmlns="http://www.w3.org/2000/svg" viewBox="0 0 559.08 582.2"><defs><style>.cls-1{fill:#212e3c;}.cls-2{fill:#3e576b;}.cls-3,.cls-4,.cls-5{fill:#fff;stroke-miterlimit:10;}.cls-3,.cls-4{stroke:#2d3f50;}.cls-3,.cls-5{stroke-width:0.28px;}.cls-4{stroke-width:0.99px;}.cls-5{stroke:#231f20;}.cls-6{fill:#f19c22;}.cls-7{fill:#231f20;}.cls-8{fill:#d88829;}</style></defs><title>header2</title><path class="cls-1" d="M1422,428.05h-90.37a25.89,25.89,0,0,0-25.89,25.89V860.72a25.89,25.89,0,0,0,25.89,25.89H1422V428.05Z" transform="translate(-1039.23 -428.05)"/><path class="cls-2" d="M1512.35,428.05H1422V886.61h90.37a25.89,25.89,0,0,0,25.89-25.89V453.95A25.89,25.89,0,0,0,1512.35,428.05Z" transform="translate(-1039.23 -428.05)"/><ellipse class="cls-3" cx="382.75" cy="434.55" rx="16.12" ry="16.44"/><rect class="cls-4" x="376.92" y="428.6" width="11.66" height="11.89" rx="2.38" ry="2.38"/><rect class="cls-5" x="350.73" y="28.74" width="64.04" height="6.59" rx="2.35" ry="2.35"/><ellipse class="cls-5" cx="382.75" cy="20.28" rx="4.37" ry="4.46"/><rect class="cls-5" x="279.86" y="49.78" width="205.78" height="357.32"/><rect class="cls-4" x="376.92" y="428.6" width="11.66" height="11.89" rx="2.38" ry="2.38"/><path class="cls-6" d="M1039.23,906.86v79.85a23.54,23.54,0,0,0,23.54,23.54h535.52V906.86H1039.23Zm535,60.9a9.65,9.65,0,1,1,9.65-9.65A9.65,9.65,0,0,1,1574.19,967.77Z" transform="translate(-1039.23 -428.05)"/><rect class="cls-7" x="14.3" y="478.81" width="7.59" height="39.94"/><rect class="cls-7" x="31.97" y="478.81" width="4.14" height="16.99"/><rect class="cls-7" x="46.2" y="478.81" width="4.14" height="16.99"/><rect class="cls-7" x="60.43" y="478.81" width="4.14" height="16.99"/><rect class="cls-7" x="74.65" y="478.81" width="4.14" height="16.99"/><rect class="cls-7" x="88.88" y="478.81" width="4.14" height="16.99"/><rect class="cls-7" x="103.11" y="478.81" width="7.59" height="39.94"/><rect class="cls-7" x="120.78" y="478.81" width="4.14" height="16.99"/><rect class="cls-7" x="135" y="478.81" width="4.14" height="16.99"/><rect class="cls-7" x="149.23" y="478.81" width="4.14" height="16.99"/><rect class="cls-7" x="163.45" y="478.81" width="4.14" height="16.99"/><rect class="cls-7" x="177.68" y="478.81" width="4.14" height="16.99"/><rect class="cls-7" x="191.91" y="478.81" width="7.59" height="39.94"/><rect class="cls-7" x="209.58" y="478.81" width="4.14" height="16.99"/><rect class="cls-7" x="223.8" y="478.81" width="4.14" height="16.99"/><rect class="cls-7" x="238.03" y="478.81" width="4.14" height="16.99"/><rect class="cls-7" x="252.26" y="478.81" width="4.14" height="16.99"/><rect class="cls-7" x="266.48" y="478.81" width="4.14" height="16.99"/><rect class="cls-7" x="280.71" y="478.81" width="7.59" height="39.94"/><rect class="cls-7" x="298.38" y="478.81" width="4.14" height="16.99"/><rect class="cls-7" x="312.6" y="478.81" width="4.14" height="16.99"/><rect class="cls-7" x="326.83" y="478.81" width="4.14" height="16.99"/><rect class="cls-7" x="341.06" y="478.81" width="4.14" height="16.99"/><rect class="cls-7" x="355.28" y="478.81" width="4.14" height="16.99"/><rect class="cls-7" x="369.51" y="478.81" width="7.59" height="39.94"/><rect class="cls-7" x="387.18" y="478.81" width="4.14" height="16.99"/><rect class="cls-7" x="401.41" y="478.81" width="4.14" height="16.99"/><rect class="cls-7" x="415.63" y="478.81" width="4.14" height="16.99"/><rect class="cls-7" x="429.86" y="478.81" width="4.14" height="16.99"/><rect class="cls-7" x="444.08" y="478.81" width="4.14" height="16.99"/><rect class="cls-7" x="458.31" y="478.81" width="7.59" height="39.94"/><rect class="cls-7" x="475.98" y="478.81" width="4.14" height="16.99"/><rect class="cls-7" x="490.21" y="478.81" width="4.14" height="16.99"/><rect class="cls-7" x="504.43" y="478.81" width="4.14" height="16.99"/><rect class="cls-7" x="518.66" y="478.81" width="4.14" height="16.99"/><rect class="cls-7" x="532.89" y="478.81" width="4.14" height="16.99"/><rect class="cls-7" x="547.11" y="478.81" width="7.59" height="39.94"/><path class="cls-8" d="M1586.34,958.12h-2.51a9.65,9.65,0,1,1-19.3,0H1039.23v29.29a22.85,22.85,0,0,0,22.85,22.85h536.24V958.12h-12Z" transform="translate(-1039.23 -428.05)"/></svg>