<svg id="Layer_1" data-name="Layer 1" xmlns="http://www.w3.org/2000/svg" viewBox="0 0 156.44 156.44"><title>insta</title><path d="M240,255.65A15.62,15.62,0,1,0,224.33,240,15.67,15.67,0,0,0,240,255.65h0Zm0,0" transform="translate(-161.78 -161.78)"/><path d="M274.19,220.84V205.76h-2l-13.12,0,0.06,15.08Zm0,0" transform="translate(-161.78 -161.78)"/><path d="M240,161.78A78.22,78.22,0,1,0,318.22,240,78.31,78.31,0,0,0,240,161.78h0Zm44.49,69.09V267.3a17.21,17.21,0,0,1-17.2,17.19H212.7a17.2,17.2,0,0,1-17.19-17.19V212.72a17.21,17.21,0,0,1,17.19-17.2h54.58a17.21,17.21,0,0,1,17.2,17.2v18.15Zm0,0" transform="translate(-161.78 -161.78)"/><path d="M264.33,240a24.33,24.33,0,1,1-46.87-9.13H204.18V267.3a8.51,8.51,0,0,0,8.52,8.51h54.58a8.51,8.51,0,0,0,8.52-8.51V230.87H262.53a24.36,24.36,0,0,1,1.8,9.13h0Zm0,0" transform="translate(-161.78 -161.78)"/></svg>