<svg id="Layer_1" data-name="Layer 1" xmlns="http://www.w3.org/2000/svg" viewBox="0 0 421.31 44.85"><defs><style>.cls-1{fill:#364a5e;}</style></defs><title>logo</title><path class="cls-1" d="M46.05,216.41h7.06L72.2,260.08H64.14l-4.4-10.47H39.24l-4.46,10.47H27ZM57,242.86l-7.5-17.35L42,242.86H57Z" transform="translate(-26.97 -215.97)"/><path class="cls-1" d="M79.63,216.72h7.62v36.43H110v6.94H79.63V216.72Z" transform="translate(-26.97 -215.97)"/><path class="cls-1" d="M118,216.72h32.15v6.81H125.6v11.27h21.75v6.81H125.6v11.65h24.84v6.81H118V216.72Z" transform="translate(-26.97 -215.97)"/><path class="cls-1" d="M157.56,238.52V238.4c0-12.33,9.23-22.43,22.36-22.43,8,0,12.82,2.79,17,6.75L192,228.36c-3.47-3.22-7.19-5.39-12.14-5.39-8.24,0-14.31,6.81-14.31,15.3v0.12c0,8.49,6,15.36,14.31,15.36,5.33,0,8.73-2.11,12.45-5.58l4.89,5c-4.52,4.71-9.48,7.68-17.59,7.68C167,260.83,157.56,251,157.56,238.52Z" transform="translate(-26.97 -215.97)"/><path class="cls-1" d="M206.07,216.72h18.21c5.33,0,9.6,1.67,12.2,4.27a11.44,11.44,0,0,1,3.28,8.05v0.12c0,7.25-5.39,11.4-12.7,12.39l14.31,18.52h-4.09l-13.81-18H209.29v18h-3.22V216.72Zm17.84,22.49c7.25,0,12.64-3.65,12.64-9.91v-0.12c0-5.82-4.58-9.48-12.45-9.48H209.29v19.51h14.62Z" transform="translate(-26.97 -215.97)"/><path class="cls-1" d="M267.33,216.41h3.1l20.2,43.68H287.1l-5.51-12.14H256l-5.51,12.14h-3.35ZM280.22,245l-11.4-25.09L257.36,245h22.86Z" transform="translate(-26.97 -215.97)"/><path class="cls-1" d="M299.79,216.72h3l17.41,25.65,17.41-25.65h3v43.37h-3.22V222.42l-17.16,25h-0.25l-17.16-25v37.67h-3.1V216.72Z" transform="translate(-26.97 -215.97)"/><path class="cls-1" d="M351.65,238.52V238.4c0-11.83,8.74-22.43,21.87-22.43s21.75,10.47,21.75,22.3v0.12c0,11.83-8.74,22.43-21.87,22.43S351.65,250.36,351.65,238.52Zm40.27,0V238.4c0-10.72-7.81-19.51-18.52-19.51S355,227.56,355,238.28v0.12c0,10.72,7.81,19.51,18.52,19.51S391.92,249.24,391.92,238.52Z" transform="translate(-26.97 -215.97)"/><path class="cls-1" d="M403.13,253.76l2.11-2.42c4.77,4.4,9.17,6.44,15.55,6.44s11-3.66,11-8.61v-0.12c0-4.58-2.42-7.25-12.27-9.23-10.41-2.11-14.62-5.64-14.62-12.2V227.5c0-6.44,5.89-11.4,13.94-11.4a21.62,21.62,0,0,1,14.87,5.27l-2,2.54A18.67,18.67,0,0,0,418.68,219c-6.38,0-10.59,3.66-10.59,8.18v0.12c0,4.58,2.35,7.37,12.64,9.48,10,2,14.25,5.64,14.25,12v0.12c0,7-6,11.83-14.37,11.83C413.66,260.7,408.33,258.41,403.13,253.76Z" transform="translate(-26.97 -215.97)"/><path class="cls-1" d="M444.2,254.82h4.09v5.27H444.2v-5.27Z" transform="translate(-26.97 -215.97)"/></svg>