<svg id="Layer_1" data-name="Layer 1" xmlns="http://www.w3.org/2000/svg" viewBox="0 0 157.93 154.04"><defs><style>.cls-1{fill-rule:evenodd;}</style></defs><title>octocat</title><path class="cls-1" d="M240,163a79,79,0,0,0-25,153.9c3.95,0.73,5.4-1.71,5.4-3.8,0-1.88-.07-8.1-0.11-14.7-22,4.78-26.6-9.32-26.6-9.32-3.59-9.13-8.77-11.55-8.77-11.55-7.17-4.9.54-4.8,0.54-4.8,7.93,0.56,12.11,8.14,12.11,8.14,7,12.07,18.47,8.58,23,6.56,0.71-5.1,2.75-8.59,5-10.56-17.54-2-36-8.77-36-39a30.56,30.56,0,0,1,8.14-21.2c-0.82-2-3.52-10,.76-20.9,0,0,6.63-2.12,21.72,8.1a74.88,74.88,0,0,1,39.55,0c15.07-10.22,21.69-8.1,21.69-8.1,4.3,10.88,1.59,18.91.78,20.9a30.5,30.5,0,0,1,8.13,21.2c0,30.33-18.47,37-36.06,39,2.83,2.45,5.36,7.26,5.36,14.62,0,10.57-.09,19.07-0.09,21.67,0,2.1,1.42,4.56,5.42,3.79A79,79,0,0,0,240,163Z" transform="translate(-161.03 -162.98)"/><path d="M190.94,276.36a1.21,1.21,0,1,1-.7-1.19,1,1,0,0,1,.7,1.19h0Zm-1-.72" transform="translate(-161.03 -162.98)"/><path d="M194.14,279.93a1.45,1.45,0,1,1-.22-1.64,1.19,1.19,0,0,1,.22,1.64h0Zm-0.75-.81" transform="translate(-161.03 -162.98)"/><path d="M197.25,284.48a1.39,1.39,0,0,1-1.76-.68,1.37,1.37,0,0,1,0-1.88,1.65,1.65,0,0,1,1.75,2.56h0Zm0,0" transform="translate(-161.03 -162.98)"/><path d="M201.52,288.87a1.48,1.48,0,0,1-2-.3,1.25,1.25,0,1,1,1.6-1.72,1.49,1.49,0,0,1,.43,2h0Zm0,0" transform="translate(-161.03 -162.98)"/><path d="M207.4,291.42a1.83,1.83,0,0,1-3.27-1,1.83,1.83,0,0,1,3.27,1h0Zm0,0" transform="translate(-161.03 -162.98)"/><path d="M213.87,291.9a1.81,1.81,0,0,1-3.39.06,1.52,1.52,0,0,1,1.69-1.21,1.5,1.5,0,0,1,1.71,1.15h0Zm0,0" transform="translate(-161.03 -162.98)"/><path d="M219.88,290.87A1.82,1.82,0,1,1,218,290a1.53,1.53,0,0,1,1.89.87h0Zm0,0" transform="translate(-161.03 -162.98)"/></svg>